<svg id="Layer_1" data-name="Layer 1" xmlns="http://www.w3.org/2000/svg" viewBox="0 0 47.92 67.84"><defs><style>.cls-1{fill:#fff;}.cls-2{fill:#1b1464;}.cls-3{fill:#f2f2f2;}.cls-4{fill:#263238;}</style></defs><title>cooking</title><path class="cls-1" d="M13,60.86a2.46,2.46,0,0,1,.88,1.32h-.73a1.81,1.81,0,0,0-.66-.85A1.94,1.94,0,0,0,11.38,61a1.77,1.77,0,0,0-.94.26,1.74,1.74,0,0,0-.66.73,2.56,2.56,0,0,0-.23,1.11,2.59,2.59,0,0,0,.23,1.11,1.77,1.77,0,0,0,1.6,1,1.94,1.94,0,0,0,1.12-.32,1.81,1.81,0,0,0,.66-.85h.73A2.46,2.46,0,0,1,13,65.35a2.64,2.64,0,0,1-1.62.49,2.51,2.51,0,0,1-1.33-.35,2.37,2.37,0,0,1-.91-1,3.05,3.05,0,0,1-.32-1.41,3.12,3.12,0,0,1,.32-1.42,2.37,2.37,0,0,1,.91-1,2.51,2.51,0,0,1,1.33-.35A2.64,2.64,0,0,1,13,60.86Z" transform="translate(-0.08 0)"/><path class="cls-1" d="M17.79,61.82a1.88,1.88,0,0,1,.74.74,2.35,2.35,0,0,1,.27,1.15,2.28,2.28,0,0,1-.27,1.13,1.88,1.88,0,0,1-.74.74,2.37,2.37,0,0,1-2.16,0,2,2,0,0,1-.75-.74,2.28,2.28,0,0,1-.27-1.13,2.35,2.35,0,0,1,.27-1.15,2,2,0,0,1,.75-.74,2.37,2.37,0,0,1,2.16,0ZM16,62.34a1.25,1.25,0,0,0-.51.51,1.74,1.74,0,0,0-.19.86,1.68,1.68,0,0,0,.19.84,1.28,1.28,0,0,0,.51.52,1.57,1.57,0,0,0,1.38,0,1.28,1.28,0,0,0,.51-.52,1.68,1.68,0,0,0,.19-.84,1.74,1.74,0,0,0-.19-.86,1.25,1.25,0,0,0-.51-.51,1.49,1.49,0,0,0-1.38,0Z" transform="translate(-0.08 0)"/><path class="cls-1" d="M22.68,61.82a1.88,1.88,0,0,1,.74.74,2.35,2.35,0,0,1,.27,1.15,2.28,2.28,0,0,1-.27,1.13,1.88,1.88,0,0,1-.74.74,2.37,2.37,0,0,1-2.16,0,2,2,0,0,1-.75-.74,2.28,2.28,0,0,1-.27-1.13,2.35,2.35,0,0,1,.27-1.15,2,2,0,0,1,.75-.74,2.37,2.37,0,0,1,2.16,0Zm-1.77.52a1.25,1.25,0,0,0-.51.51,1.74,1.74,0,0,0-.19.86,1.68,1.68,0,0,0,.19.84,1.28,1.28,0,0,0,.51.52,1.57,1.57,0,0,0,1.38,0,1.28,1.28,0,0,0,.51-.52,1.68,1.68,0,0,0,.19-.84,1.74,1.74,0,0,0-.19-.86,1.25,1.25,0,0,0-.51-.51,1.49,1.49,0,0,0-1.38,0Z" transform="translate(-0.08 0)"/><path class="cls-1" d="M26.89,65.79l-1.6-1.88v1.88H24.6V60.16h.69v3.27l1.57-1.82h.85l-1.87,2.08,1.91,2.1Z" transform="translate(-0.08 0)"/><path class="cls-1" d="M28.37,60.08a.49.49,0,0,1,.34-.12.47.47,0,0,1,.34.12.43.43,0,0,1,0,.62.47.47,0,0,1-.34.12.49.49,0,0,1-.34-.12.43.43,0,0,1,0-.62Zm.68,1.53v4.18h-.69V61.61Z" transform="translate(-0.08 0)"/><path class="cls-1" d="M33.54,62A1.9,1.9,0,0,1,34,63.36v2.43H33.3V63.42a1.33,1.33,0,0,0-.32-1,1.12,1.12,0,0,0-.87-.34,1.17,1.17,0,0,0-.91.37,1.54,1.54,0,0,0-.34,1.08v2.21h-.7V61.61h.7v1a1.37,1.37,0,0,1,.56-.78,1.67,1.67,0,0,1,.94-.27A1.56,1.56,0,0,1,33.54,62Z" transform="translate(-0.08 0)"/><path class="cls-1" d="M37.8,61.86a1.69,1.69,0,0,1,.59.82V61.61h.69v4.25a2.11,2.11,0,0,1-.24,1,1.79,1.79,0,0,1-.69.7,2,2,0,0,1-1,.26,2.19,2.19,0,0,1-1.37-.41,1.8,1.8,0,0,1-.68-1.1h.68a1.26,1.26,0,0,0,.46.66,1.5,1.5,0,0,0,.88.24,1.29,1.29,0,0,0,.93-.36,1.39,1.39,0,0,0,.37-1V64.72a1.65,1.65,0,0,1-.59.82,1.74,1.74,0,0,1-1,.3,1.83,1.83,0,0,1-1-.26,1.74,1.74,0,0,1-.68-.74,2.38,2.38,0,0,1-.25-1.13,2.47,2.47,0,0,1,.25-1.15,1.74,1.74,0,0,1,.68-.74,1.92,1.92,0,0,1,1-.26A1.74,1.74,0,0,1,37.8,61.86Zm-1.86.72a1.86,1.86,0,0,0,0,2.25,1.35,1.35,0,0,0,1,.4A1.41,1.41,0,0,0,37.7,65a1.28,1.28,0,0,0,.5-.53,1.8,1.8,0,0,0,0-1.61,1.37,1.37,0,0,0-.5-.54,1.5,1.5,0,0,0-.74-.18A1.35,1.35,0,0,0,35.94,62.58Z" transform="translate(-0.08 0)"/><path class="cls-1" d="M44.58,46.4A.39.39,0,0,1,44.2,46V39.93a1.53,1.53,0,0,0-1.52-1.52H5.41a1.52,1.52,0,0,0-1.52,1.52V46a.38.38,0,1,1-.76,0V39.93a2.28,2.28,0,0,1,2.28-2.28H42.68A2.29,2.29,0,0,1,45,39.93V46A.39.39,0,0,1,44.58,46.4Z" transform="translate(-0.08 0)"/><path class="cls-1" d="M40,44.49a1.9,1.9,0,1,1,1.91-1.9A1.91,1.91,0,0,1,40,44.49Zm0-3a1.14,1.14,0,1,0,1.14,1.14A1.14,1.14,0,0,0,40,41.45Z" transform="translate(-0.08 0)"/><path class="cls-1" d="M34.69,44.49a1.9,1.9,0,1,1,1.9-1.9A1.9,1.9,0,0,1,34.69,44.49Zm0-3a1.14,1.14,0,1,0,1.14,1.14A1.14,1.14,0,0,0,34.69,41.45Z" transform="translate(-0.08 0)"/><rect class="cls-2" x="19.73" y="41.07" width="8.45" height="2.9"/><path class="cls-3" d="M28.27,44.35H19.82a.38.38,0,0,1-.39-.38v-2.9a.38.38,0,0,1,.39-.38h8.45a.38.38,0,0,1,.38.38V44A.38.38,0,0,1,28.27,44.35Zm-8.07-.76h7.69V41.45H20.2Z" transform="translate(-0.08 0)"/><path class="cls-1" d="M19.22,14.07a.41.41,0,0,1-.16,0,.38.38,0,0,1-.19-.5l1-2.24a3.41,3.41,0,0,0-.45-3.5l-.94-1.18a4.17,4.17,0,0,1-.53-4.33L18.87.22a.38.38,0,1,1,.69.32L18.62,2.6a3.43,3.43,0,0,0,.44,3.55L20,7.32a4.18,4.18,0,0,1,.56,4.28l-1,2.24A.36.36,0,0,1,19.22,14.07Z" transform="translate(-0.08 0)"/><path class="cls-1" d="M15.41,14.07l-.14,0a.38.38,0,0,1-.21-.49l.75-1.86a1.48,1.48,0,0,0-.16-1.44L14.56,8.69a2.28,2.28,0,0,1-.22-2.2l.72-1.7a.39.39,0,0,1,.5-.2.37.37,0,0,1,.2.5L15,6.78a1.51,1.51,0,0,0,.15,1.47l1.09,1.56A2.3,2.3,0,0,1,16.52,12l-.75,1.85A.39.39,0,0,1,15.41,14.07Z" transform="translate(-0.08 0)"/><path class="cls-1" d="M11.49,21.68H6.93a1.91,1.91,0,0,1,0-3.81h4.56a.38.38,0,0,1,.38.38V21.3A.38.38,0,0,1,11.49,21.68ZM6.93,18.63a1.15,1.15,0,0,0,0,2.29h4.18V18.63Z" transform="translate(-0.08 0)"/><path class="cls-1" d="M41.15,21.68H36.59a.38.38,0,0,1-.38-.38V18.25a.38.38,0,0,1,.38-.38h4.56a1.91,1.91,0,1,1,0,3.81ZM37,20.92h4.18a1.15,1.15,0,1,0,0-2.29H37Z" transform="translate(-0.08 0)"/><path class="cls-1" d="M34.76,36.89a.36.36,0,0,1-.28-.12.37.37,0,0,1,0-.54,5.28,5.28,0,0,0,1.71-3.91V18.63H11.87V32.32a5.26,5.26,0,0,0,1.72,3.91.38.38,0,0,1-.52.56,6.12,6.12,0,0,1-2-4.47V18.25a.38.38,0,0,1,.38-.38h25.1a.38.38,0,0,1,.38.38V32.32a6.09,6.09,0,0,1-2,4.47A.39.39,0,0,1,34.76,36.89Z" transform="translate(-0.08 0)"/><path class="cls-1" d="M33,16.73l5.65-5.24a1.89,1.89,0,0,0,.05-2.73l-1-1a1.91,1.91,0,0,0-2.74,0l-8.26,8.9M36.6,11.5a1.15,1.15,0,1,1,0-1.62A1.16,1.16,0,0,1,36.6,11.5Z" transform="translate(-0.08 0)"/><path class="cls-4" d="M33,17.11a.36.36,0,0,1-.27-.12.37.37,0,0,1,0-.54l5.64-5.23a1.55,1.55,0,0,0,.48-1.09A1.49,1.49,0,0,0,38.43,9l-1-1a1.57,1.57,0,0,0-1.1-.44,1.51,1.51,0,0,0-1.09.48L27,17a.38.38,0,0,1-.54,0,.39.39,0,0,1,0-.54l8.27-8.9A2.29,2.29,0,0,1,38,7.51l1,1a2.26,2.26,0,0,1,.66,1.65,2.23,2.23,0,0,1-.73,1.63L33.26,17A.35.35,0,0,1,33,17.11Zm2.79-4.9a1.55,1.55,0,0,1-1.08-.44,1.52,1.52,0,1,1,2.15-2.16,1.52,1.52,0,0,1,0,2.16h0A1.51,1.51,0,0,1,35.79,12.21Zm.81-.71Zm-.81-1.57a.75.75,0,0,0-.54.22.76.76,0,1,0,1.08,1.08h0a.78.78,0,0,0,0-1.08A.76.76,0,0,0,35.79,9.93Z" transform="translate(-0.08 0)"/><path class="cls-1" d="M8.45,28.52H2.75a.38.38,0,1,1,0-.76h5.7a.38.38,0,1,1,0,.76Z" transform="translate(-0.08 0)"/><path class="cls-1" d="M1.22,28.52H.46a.38.38,0,1,1,0-.76h.76a.38.38,0,1,1,0,.76Z" transform="translate(-0.08 0)"/><path class="cls-1" d="M45.34,28.52H39.63a.38.38,0,1,1,0-.76h5.71a.38.38,0,1,1,0,.76Z" transform="translate(-0.08 0)"/><path class="cls-1" d="M47.62,28.52h-.76a.38.38,0,1,1,0-.76h.76a.38.38,0,0,1,0,.76Z" transform="translate(-0.08 0)"/><path class="cls-1" d="M34.31,32.7a.38.38,0,0,1-.38-.38V20.54a.38.38,0,1,1,.76,0V32.32A.38.38,0,0,1,34.31,32.7Z" transform="translate(-0.08 0)"/></svg>