<svg id="Layer_1" data-name="Layer 1" xmlns="http://www.w3.org/2000/svg" viewBox="0 0 48 46.16"><defs><style>.cls-1{fill:#e6e6e6;}.cls-2{fill:#fff;}</style></defs><title>c#</title><path class="cls-1" d="M47.74,22.7a.72.72,0,0,1,.11.34c0,.12-.08.27.14.33v.29q0,9.86,0,19.72a2.49,2.49,0,0,1-.19.71,4,4,0,0,1-1.15,1.73,3.1,3.1,0,0,1-.93.6c-.52.22-1,.48-1.5.74l-1.18.58c-.83.41-1.65.85-2.5,1.24l-1.45.71c-.57.3-1.17.55-1.74.87s-1.11.53-1.66.8l-1.92,1c-.73.35-1.47.69-2.19,1.05s-1.29.69-1.95,1-1.1.55-1.66.81l-1.38.66a5.27,5.27,0,0,1-1.16.52,3.93,3.93,0,0,1-.84.18H23.08s0-.08-.06-.08c-.3,0-.56-.17-.86-.17l0,0c0-.06,0-.08-.09-.06l-.15,0c0-.12-.12-.14-.24-.13a.24.24,0,0,0-.18-.09c-.05-.06-.1-.13-.2-.11l-.06,0s0,0,0,0l-.05,0-.24-.12-.07,0s-.05,0-.1,0c-.76-.38-1.52-.78-2.29-1.13s-1.32-.64-2-1-1.25-.62-1.88-.93l-1.27-.63-1.54-.76c-.59-.31-1.2-.6-1.8-.89-.79-.4-1.58-.81-2.38-1.19s-1.34-.64-2-1-1.32-.64-2-1S2.5,46.61,2,46.32A3.76,3.76,0,0,1,.61,45.11c0-.07,0-.12,0-.17L3.4,43.6c.95-.46,1.89-.94,2.83-1.41,1.2-.59,2.4-1.17,3.59-1.77.16-.08.24,0,.3.06.22.38.59.69.78,1.09,0,.07.1.06.17.07h0a.58.58,0,0,0,.33.37,0,0,0,0,0,0,0v0h0l0,0a.42.42,0,0,0,.26.26h0c0,.24.29.27.43.42h0a.23.23,0,0,0,.16.16h0a.42.42,0,0,0,.25.22h0a.36.36,0,0,0,.25.21h0c0,.06,0,.08.1.08h0a.41.41,0,0,0,.24.19h0a.14.14,0,0,0,.17.11l0,0,0,0,.07.06c0,.06.07.08.12.12a15.42,15.42,0,0,0,3,1.7,16.92,16.92,0,0,0,2.81,1,1.6,1.6,0,0,0,.69.12l.14,0a3.42,3.42,0,0,0,1.2.21h.19a.75.75,0,0,0,.36.1,25,25,0,0,0,3.57,0,1.55,1.55,0,0,0,.64-.12h.14a4.92,4.92,0,0,0,1.15-.17s0,0,0-.05h.15a.12.12,0,0,0,.14,0c.36-.12.73-.18,1.1-.28a18.2,18.2,0,0,0,3.23-1.26,3.81,3.81,0,0,0,.83-.5h0a5.56,5.56,0,0,0,1.33-.87h0a2.42,2.42,0,0,0,.81-.63h0a.37.37,0,0,0,.26-.22h0a2.45,2.45,0,0,0,.74-.69h0c.06,0,.08,0,.08-.1h0c.11,0,.13-.08.16-.15h0a5.43,5.43,0,0,0,1-1.23h0c.18-.1.21-.28.33-.41a.14.14,0,0,0-.09-.22,4.79,4.79,0,0,1-.56-.26c-.94-.47-1.88-1-2.83-1.41a4.21,4.21,0,0,0-1-.44L33.25,38c-.68-.42-1.44-.71-2.14-1.09a.26.26,0,0,0-.4.11l-.06.14h0a.93.93,0,0,0-.33.41h0c-.2.09-.3.27-.44.41a8.39,8.39,0,0,1-3.21,1.84,2.19,2.19,0,0,0-.71.23h-.09c-.32,0-.65.06-1,.12a1.33,1.33,0,0,0-.52.09h-.86c-.14-.1-.31-.06-.47-.09-.35-.06-.7-.09-1.05-.13h-.1c-.13-.13-.34-.12-.51-.17-.43-.14-.85-.31-1.28-.46h0c-.13-.07-.25-.16-.39-.22a3.6,3.6,0,0,0-.7-.37v0c0-.06,0-.08-.09-.12A5.93,5.93,0,0,1,18,38a.94.94,0,0,0-.32-.27h0c0-.06,0-.09-.08-.1h0a3.14,3.14,0,0,0-.39-.51c-.12-.16-.11-.24.08-.33l2.6-1.31c1.17-.58,2.35-1.12,3.49-1.73,1-.51,2-1,3-1.5l3.57-1.76A4.24,4.24,0,0,1,31,30a.68.68,0,0,0,.52-.28l0,0c.15,0,.35,0,.41-.21l4.14-2s0,0,0,0l.1-.05a.09.09,0,0,0,.11-.05l.2-.1s.08,0,.08,0l.07,0a.11.11,0,0,0,.13-.07L37,27c.07,0,.12,0,.15-.08l0,0c.06,0,.09,0,.1-.05h0c.07,0,.15,0,.17-.06h0c.27,0,.37-.25.57-.34,1.08-.52,2.16-1,3.22-1.59.82-.43,1.66-.81,2.49-1.22l3-1.49a1.57,1.57,0,0,1,.55-.23h0a.09.09,0,0,0,.1.06.26.26,0,0,0,.1.21c0,.06,0,.12.06.15s.13.14.13.24S47.68,22.67,47.74,22.7ZM36.17,31.36a4.34,4.34,0,0,0-.51,0c-.26,0-.28-.07-.25-.25.06-.46.1-.92.17-1.38,0-.13,0-.14-.15-.14-.32,0-.64,0-1,0-.16,0-.19,0-.21.17,0,.49-.12,1-.18,1.47,0,.1,0,.13-.17.13H33c-.12,0-.19,0-.18.14s0,.53,0,.8c0,.11,0,.14.16.13h.82c.1,0,.14,0,.13.11-.06.45-.12.89-.16,1.34,0,.12-.07.14-.19.14h-1c-.12,0-.16,0-.16.14,0,.27,0,.53,0,.8,0,.1,0,.14.16.13h.83c.15,0,.18,0,.16.16-.07.54-.12,1.08-.2,1.62,0,.14,0,.17.17.16h.95c.14,0,.19,0,.2-.15.06-.55.14-1.1.19-1.65,0-.11.06-.14.19-.14h1.13c.18,0,.22,0,.2.19-.07.52-.13,1.05-.2,1.58,0,.12,0,.18.17.18a7.21,7.21,0,0,1,.93,0c.17,0,.21-.05.23-.19,0-.5.11-1,.16-1.51,0-.19.08-.27.32-.25s.53,0,.8,0,.19,0,.18-.16v-.77c0-.11,0-.14-.16-.13h-.8c-.12,0-.18,0-.16-.14.06-.44.11-.88.16-1.32,0-.1.05-.13.17-.13h1c.12,0,.16,0,.16-.13,0-.27,0-.53,0-.8,0-.1,0-.14-.16-.14h-.77c-.17,0-.26,0-.23-.2.08-.47.11-.95.18-1.42,0-.12,0-.16-.16-.15-.33,0-.65,0-1,0-.14,0-.17.05-.18.15,0,.4-.09.8-.14,1.2s0,.42-.52.42Z" transform="translate(0 -10.38)"/><path class="cls-2" d="M47.33,21.94a1.57,1.57,0,0,0-.55.23l-3,1.49c-.83.41-1.67.79-2.49,1.22-1.06.54-2.14,1.07-3.22,1.59-.2.09-.3.33-.57.34,0-.12.13-.1.19-.15s.13-.09.06-.18a17.77,17.77,0,0,0-1.36-1.65,16.35,16.35,0,0,0-1.57-1.42,17.9,17.9,0,0,0-2.23-1.47,16,16,0,0,0-2.23-1A19,19,0,0,0,28,20.24a16.07,16.07,0,0,0-3.09-.42,20.58,20.58,0,0,0-3.51.13,14.27,14.27,0,0,0-1.73.33c-.43.13-.87.21-1.29.35a15.5,15.5,0,0,0-1.69.64c-.49.23-1,.45-1.46.72a15.36,15.36,0,0,0-1.62,1,15.2,15.2,0,0,0-1.68,1.4,13.92,13.92,0,0,0-1.74,2,11.53,11.53,0,0,0-1.11,1.92,11.15,11.15,0,0,0-.83,2.44A10.06,10.06,0,0,0,8,32.46a12.16,12.16,0,0,0,.39,4.15,14.09,14.09,0,0,0,.72,2,12,12,0,0,0,1.63,2.56c.13.16.33.29.36.5-.07,0-.14,0-.17-.07-.19-.4-.56-.71-.78-1.09-.06-.1-.14-.14-.3-.06-1.19.6-2.39,1.18-3.59,1.77-.94.47-1.88,1-2.83,1.41L.65,44.94c-.17,0-.15-.18-.22-.28A2.46,2.46,0,0,1,0,43.16Q0,33.43,0,23.7A3.16,3.16,0,0,1,.58,22a6,6,0,0,1,1.18-1.23,3.57,3.57,0,0,1,.71-.34c.55-.31,1.13-.58,1.7-.85.38-.17.75-.37,1.13-.55L6,18.72c.52-.25,1-.54,1.54-.78s1.1-.54,1.64-.84c.39-.22.83-.38,1.23-.58s1-.51,1.57-.78,1.23-.59,1.84-.89a7.09,7.09,0,0,1,.72-.38,13.21,13.21,0,0,0,1.25-.62c.2-.07.38-.19.57-.27a5.16,5.16,0,0,0,.67-.32c.34-.19.71-.33,1-.52s.57-.24.82-.39.7-.32,1-.51.56-.23.8-.38.69-.3,1-.5a3.08,3.08,0,0,1,1.3-.47,5.18,5.18,0,0,1,1.18-.1,4.75,4.75,0,0,1,1.8.42c.54.28,1.11.54,1.65.82l1.51.73,2.11,1.06c.59.31,1.2.58,1.79.88s.92.44,1.38.68,1.06.48,1.55.75,1.09.5,1.59.81a9.5,9.5,0,0,0,1,.47c.44.22.9.43,1.35.66s.91.43,1.35.67,1.08.5,1.61.76l2,1,1,.47a3.59,3.59,0,0,1,1.32,1.07A2.4,2.4,0,0,1,47.33,21.94Z" transform="translate(0 -10.38)"/><path class="cls-2" d="M22.16,56.28c.3,0,.56.16.86.17.05,0,.05,0,.06.08A2.07,2.07,0,0,1,22.16,56.28Z" transform="translate(0 -10.38)"/><path class="cls-2" d="M21.66,56.05c.12,0,.21,0,.24.13C21.81,56.14,21.69,56.16,21.66,56.05Z" transform="translate(0 -10.38)"/><path class="cls-2" d="M21.28,55.85c.1,0,.15,0,.2.11C21.35,56,21.34,55.89,21.28,55.85Z" transform="translate(0 -10.38)"/><path class="cls-2" d="M20.89,55.64l.24.12Q20.92,55.84,20.89,55.64Z" transform="translate(0 -10.38)"/><path class="cls-2" d="M20.72,55.57c.05,0,.08,0,.1,0S20.72,55.64,20.72,55.57Z" transform="translate(0 -10.38)"/><path class="cls-2" d="M22.05,56.2c.06,0,.1,0,.09.06A.07.07,0,0,1,22.05,56.2Z" transform="translate(0 -10.38)"/><path class="cls-2" d="M21.18,55.79s0,0,0,0S21.18,55.82,21.18,55.79Z" transform="translate(0 -10.38)"/><path class="cls-2" d="M17.62,37.62c-.26-.1-.36-.33-.49-.51a9.73,9.73,0,0,1-.72-1.3A7.76,7.76,0,0,1,16,34.54,5.17,5.17,0,0,1,16,32.62a5.78,5.78,0,0,1,.46-1.57,6.74,6.74,0,0,1,1.15-1.74A7.21,7.21,0,0,1,19,28.12a8.75,8.75,0,0,1,4-1.45,9.68,9.68,0,0,1,2.79.13,10.71,10.71,0,0,1,2.11.72A7.5,7.5,0,0,1,30,29a6.21,6.21,0,0,1,.79.92.22.22,0,0,0,.32.06.82.82,0,0,1,.48-.19A.68.68,0,0,1,31,30a4.24,4.24,0,0,0-1.12.45l-3.57,1.76c-1,.5-2,1-3,1.5-1.14.61-2.32,1.15-3.49,1.73l-2.6,1.31c-.19.09-.2.17-.08.33A3.14,3.14,0,0,1,17.62,37.62Z" transform="translate(0 -10.38)"/><path class="cls-2" d="M13.52,43.88c.18,0,.24.13.35.2a18.28,18.28,0,0,0,2.23,1.3c.44.21.9.38,1.35.57a19,19,0,0,0,2.22.68c.16,0,.35,0,.47.15a1.6,1.6,0,0,1-.69-.12,16.92,16.92,0,0,1-2.81-1,15.42,15.42,0,0,1-3-1.7C13.59,44,13.53,43.94,13.52,43.88Z" transform="translate(0 -10.38)"/><path class="cls-2" d="M37.48,40.82c0-.15.12-.24.2-.35s0-.17-.08-.23l-1.38-.67-1.94-1-.76-.35c-.08,0-.15-.07-.18-.15a4.21,4.21,0,0,1,1,.44c1,.46,1.89.94,2.83,1.41a4.79,4.79,0,0,0,.56.26.14.14,0,0,1,.09.22C37.69,40.54,37.66,40.72,37.48,40.82Z" transform="translate(0 -10.38)"/><path class="cls-2" d="M27.73,46.78c.15-.18.4-.14.6-.19a16,16,0,0,0,1.71-.5,13.64,13.64,0,0,0,1.49-.6c.45-.22.89-.43,1.32-.69a.27.27,0,0,1,.18,0,3.81,3.81,0,0,1-.83.5A18.2,18.2,0,0,1,29,46.51c-.37.1-.74.16-1.1.28A.12.12,0,0,1,27.73,46.78Z" transform="translate(0 -10.38)"/><path class="cls-2" d="M21.67,47a1.46,1.46,0,0,1,.51,0,17.55,17.55,0,0,0,3.55,0,1.46,1.46,0,0,1,.51,0,1.55,1.55,0,0,1-.64.12,25,25,0,0,1-3.57,0A.75.75,0,0,1,21.67,47Z" transform="translate(0 -10.38)"/><path class="cls-2" d="M30.31,37.6a3.42,3.42,0,0,1-.91.91,7.91,7.91,0,0,1-1.85,1.09,12.31,12.31,0,0,1-1.37.48.36.36,0,0,1-.23,0,2.19,2.19,0,0,1,.71-.23A8.39,8.39,0,0,0,29.87,38C30,37.87,30.11,37.69,30.31,37.6Z" transform="translate(0 -10.38)"/><path class="cls-2" d="M33.25,38c-.26,0-.41-.14-.59-.23-.52-.26-1.07-.49-1.57-.79a.21.21,0,0,0-.29,0c-.05.05-.05.13-.15.14l.06-.14a.26.26,0,0,1,.4-.11C31.81,37.31,32.57,37.6,33.25,38Z" transform="translate(0 -10.38)"/><path class="cls-2" d="M21.89,40.07c-.19.09-.35,0-.5-.08a9.7,9.7,0,0,1-1.21-.45s-.09,0-.08-.1c.43.15.85.32,1.28.46C21.55,40,21.76,39.94,21.89,40.07Z" transform="translate(0 -10.38)"/><path class="cls-2" d="M19,38.82a3.5,3.5,0,0,1-1.28-1.09A.94.94,0,0,1,18,38a5.93,5.93,0,0,0,.87.7S19,38.76,19,38.82Z" transform="translate(0 -10.38)"/><path class="cls-2" d="M25.86,40.09a.21.21,0,0,1-.15.11,6,6,0,0,1-1.34.1,1.33,1.33,0,0,1,.52-.09C25.21,40.15,25.54,40.13,25.86,40.09Z" transform="translate(0 -10.38)"/><path class="cls-2" d="M23.51,40.3A3.14,3.14,0,0,1,22,40.08c.35,0,.7.07,1.05.13C23.2,40.24,23.37,40.2,23.51,40.3Z" transform="translate(0 -10.38)"/><path class="cls-2" d="M36.45,42.05c0-.23.28-.33.41-.51s.35-.44.52-.67a.14.14,0,0,1,.1,0A5.43,5.43,0,0,1,36.45,42.05Z" transform="translate(0 -10.38)"/><path class="cls-2" d="M33.05,44.74c.06-.18.28-.21.43-.3a4.9,4.9,0,0,1,.9-.57A5.56,5.56,0,0,1,33.05,44.74Z" transform="translate(0 -10.38)"/><path class="cls-2" d="M26.38,47a.56.56,0,0,1,.13-.07,5.52,5.52,0,0,1,1.07-.15s0,.05,0,.05A4.92,4.92,0,0,1,26.38,47Z" transform="translate(0 -10.38)"/><path class="cls-2" d="M20.28,46.8a3.23,3.23,0,0,1,1.2.21A3.42,3.42,0,0,1,20.28,46.8Z" transform="translate(0 -10.38)"/><path class="cls-2" d="M20.09,39.43c-.34,0-.54-.25-.81-.38-.1,0-.24-.09-.28-.21a3.6,3.6,0,0,1,.7.37C19.84,39.27,20,39.36,20.09,39.43Z" transform="translate(0 -10.38)"/><path class="cls-2" d="M34.38,43.86c0-.17.24-.2.35-.3a1.54,1.54,0,0,1,.46-.33A2.42,2.42,0,0,1,34.38,43.86Z" transform="translate(0 -10.38)"/><path class="cls-2" d="M35.45,43a2.87,2.87,0,0,1,.74-.69A2.45,2.45,0,0,1,35.45,43Z" transform="translate(0 -10.38)"/><path class="cls-2" d="M11.74,42.35c.17.12.37.22.43.42C12,42.62,11.75,42.59,11.74,42.35Z" transform="translate(0 -10.38)"/><path class="cls-2" d="M11.07,41.64c.16.1.3.2.33.37A.58.58,0,0,1,11.07,41.64Z" transform="translate(0 -10.38)"/><path class="cls-2" d="M30.65,37.18c0,.19-.19.3-.33.41A.93.93,0,0,1,30.65,37.18Z" transform="translate(0 -10.38)"/><path class="cls-2" d="M31.6,29.72a.48.48,0,0,1,.41-.21C32,29.69,31.75,29.67,31.6,29.72Z" transform="translate(0 -10.38)"/><path class="cls-2" d="M11.48,42.09c.15,0,.2.15.26.26A.42.42,0,0,1,11.48,42.09Z" transform="translate(0 -10.38)"/><path class="cls-2" d="M12.35,42.94c.13,0,.23.09.25.22A.42.42,0,0,1,12.35,42.94Z" transform="translate(0 -10.38)"/><path class="cls-2" d="M35.19,43.23a.39.39,0,0,1,.26-.22A.37.37,0,0,1,35.19,43.23Z" transform="translate(0 -10.38)"/><path class="cls-2" d="M12.61,43.16c.13,0,.23.09.25.21A.36.36,0,0,1,12.61,43.16Z" transform="translate(0 -10.38)"/><path class="cls-2" d="M13,43.46c.14,0,.23.06.24.19A.41.41,0,0,1,13,43.46Z" transform="translate(0 -10.38)"/><path class="cls-2" d="M36.28,42.21c0-.08,0-.14.16-.15S36.39,42.2,36.28,42.21Z" transform="translate(0 -10.38)"/><path class="cls-2" d="M12.18,42.78c.11,0,.18,0,.16.16A.23.23,0,0,1,12.18,42.78Z" transform="translate(0 -10.38)"/><path class="cls-2" d="M13.22,43.65a.14.14,0,0,1,.17.11A.14.14,0,0,1,13.22,43.65Z" transform="translate(0 -10.38)"/><path class="cls-2" d="M37.31,26.88c0-.07.09-.07.17-.06S37.38,26.89,37.31,26.88Z" transform="translate(0 -10.38)"/><path class="cls-2" d="M37,27c0-.09.06-.11.15-.08S37.1,27,37,27Z" transform="translate(0 -10.38)"/><path class="cls-2" d="M12.87,43.38c.06,0,.1,0,.1.08S12.87,43.44,12.87,43.38Z" transform="translate(0 -10.38)"/><path class="cls-2" d="M36.19,42.32s0-.09.08-.1S36.25,42.3,36.19,42.32Z" transform="translate(0 -10.38)"/><path class="cls-2" d="M17.7,37.73a.09.09,0,0,1-.08-.1C17.68,37.64,17.71,37.67,17.7,37.73Z" transform="translate(0 -10.38)"/><path class="cls-2" d="M36.75,27.17c0-.06,0-.1.13-.07A.11.11,0,0,1,36.75,27.17Z" transform="translate(0 -10.38)"/><path class="cls-2" d="M37.21,26.94c0-.05,0-.06.1-.05S37.27,27,37.21,26.94Z" transform="translate(0 -10.38)"/><path class="cls-2" d="M36.29,27.39c0-.05.05-.07.11-.05A.09.09,0,0,1,36.29,27.39Z" transform="translate(0 -10.38)"/><path class="cls-2" d="M36.6,27.24s0,0,.08,0S36.65,27.25,36.6,27.24Z" transform="translate(0 -10.38)"/><path class="cls-2" d="M13.43,43.79s0,0,0,0Z" transform="translate(0 -10.38)"/><path class="cls-2" d="M36.15,27.47s0,0,0,0S36.18,27.48,36.15,27.47Z" transform="translate(0 -10.38)"/><path class="cls-2" d="M11.41,42s.05,0,0,0h0Z" transform="translate(0 -10.38)"/><path class="cls-1" d="M36,32.42h.36c.41,0,.41,0,.36.34s-.1.74-.14,1.12c0,.1,0,.13-.16.13H35.25c-.14,0-.17,0-.16-.15.06-.45.11-.89.16-1.34,0-.09.07-.1.15-.1Z" transform="translate(0 -10.38)"/></svg>