<svg id="Layer_1" data-name="Layer 1" xmlns="http://www.w3.org/2000/svg" viewBox="0 0 47.3 67.61"><defs><style>.cls-1{fill:#fff;}</style></defs><title>gaming</title><path class="cls-1" d="M13.31,60.94a2.3,2.3,0,0,1,.88,1.29h-.75a1.64,1.64,0,0,0-.65-.8,1.89,1.89,0,0,0-1.07-.3,2,2,0,0,0-1,.26,1.77,1.77,0,0,0-.69.74,2.39,2.39,0,0,0-.26,1.13A2.41,2.41,0,0,0,10,64.41a1.78,1.78,0,0,0,.71.75,2.08,2.08,0,0,0,1,.26,1.93,1.93,0,0,0,.93-.22,1.78,1.78,0,0,0,.68-.63,2.07,2.07,0,0,0,.32-1H11.57v-.53h2.74v.65a2.81,2.81,0,0,1-.4,1.18,2.51,2.51,0,0,1-.9.84,2.73,2.73,0,0,1-1.29.31,2.7,2.7,0,0,1-1.4-.36,2.47,2.47,0,0,1-.94-1,3.33,3.33,0,0,1,0-2.89,2.49,2.49,0,0,1,.94-1,2.69,2.69,0,0,1,1.39-.36A2.66,2.66,0,0,1,13.31,60.94Z" transform="translate(-0.66 -0.46)"/><path class="cls-1" d="M18.06,62a1.58,1.58,0,0,1,.6.83V61.73h.71V66h-.71V64.91a1.62,1.62,0,0,1-.6.83,1.81,1.81,0,0,1-1,.31,1.91,1.91,0,0,1-1-.27,1.79,1.79,0,0,1-.69-.75,2.51,2.51,0,0,1-.26-1.16,2.55,2.55,0,0,1,.26-1.17,1.82,1.82,0,0,1,.69-.76,2,2,0,0,1,1-.26A1.74,1.74,0,0,1,18.06,62Zm-1.89.73a1.88,1.88,0,0,0,0,2.29,1.36,1.36,0,0,0,1,.42,1.45,1.45,0,0,0,.75-.2,1.33,1.33,0,0,0,.51-.54,1.68,1.68,0,0,0,.19-.82,1.66,1.66,0,0,0-.19-.82A1.29,1.29,0,0,0,18,62.5a1.44,1.44,0,0,0-.75-.19A1.39,1.39,0,0,0,16.17,62.72Z" transform="translate(-0.66 -0.46)"/><path class="cls-1" d="M26.92,62.14a1.9,1.9,0,0,1,.46,1.38V66h-.71V63.58a1.38,1.38,0,0,0-.3-1,1.11,1.11,0,0,0-.85-.33,1.15,1.15,0,0,0-.89.36,1.55,1.55,0,0,0-.34,1.09V66h-.7V63.58a1.38,1.38,0,0,0-.31-1,1.11,1.11,0,0,0-.84-.33,1.2,1.2,0,0,0-.91.36,1.6,1.6,0,0,0-.33,1.09V66h-.71V61.73h.71v1a1.41,1.41,0,0,1,.55-.77,1.6,1.6,0,0,1,.92-.26,1.62,1.62,0,0,1,.94.27,1.44,1.44,0,0,1,.57.81,1.53,1.53,0,0,1,.6-.8,1.63,1.63,0,0,1,.95-.28A1.55,1.55,0,0,1,26.92,62.14Z" transform="translate(-0.66 -0.46)"/><path class="cls-1" d="M28.48,60.17a.5.5,0,0,1,.35-.12.51.51,0,0,1,.35.12.44.44,0,0,1,.13.32.42.42,0,0,1-.13.31.51.51,0,0,1-.35.12.5.5,0,0,1-.35-.12.39.39,0,0,1-.13-.31A.41.41,0,0,1,28.48,60.17Zm.7,1.56V66h-.71V61.73Z" transform="translate(-0.66 -0.46)"/><path class="cls-1" d="M33.75,62.14a1.9,1.9,0,0,1,.46,1.38V66H33.5V63.58a1.36,1.36,0,0,0-.32-1,1.2,1.2,0,0,0-.89-.34,1.24,1.24,0,0,0-.93.38,1.56,1.56,0,0,0-.35,1.1V66h-.7V61.73H31v1a1.54,1.54,0,0,1,.58-.8,1.74,1.74,0,0,1,1-.27A1.56,1.56,0,0,1,33.75,62.14Z" transform="translate(-0.66 -0.46)"/><path class="cls-1" d="M38.09,62a1.58,1.58,0,0,1,.6.83V61.73h.71v4.33a2.23,2.23,0,0,1-.25,1,1.84,1.84,0,0,1-.7.71,2.1,2.1,0,0,1-1.05.26,2.22,2.22,0,0,1-1.4-.42,1.83,1.83,0,0,1-.69-1.12H36a1.17,1.17,0,0,0,.47.67,1.44,1.44,0,0,0,.89.25,1.29,1.29,0,0,0,1-.37,1.38,1.38,0,0,0,.37-1V64.91a1.62,1.62,0,0,1-.6.83,1.81,1.81,0,0,1-1.05.31,1.91,1.91,0,0,1-1-.27,1.86,1.86,0,0,1-.69-.75,2.51,2.51,0,0,1-.25-1.16,2.55,2.55,0,0,1,.25-1.17,1.89,1.89,0,0,1,.69-.76,2,2,0,0,1,1-.26A1.74,1.74,0,0,1,38.09,62Zm-1.89.73a1.88,1.88,0,0,0,0,2.29,1.36,1.36,0,0,0,1,.42,1.45,1.45,0,0,0,.75-.2,1.42,1.42,0,0,0,.52-.54,1.8,1.8,0,0,0,.18-.82,1.77,1.77,0,0,0-.18-.82A1.38,1.38,0,0,0,38,62.5a1.44,1.44,0,0,0-.75-.19A1.39,1.39,0,0,0,36.2,62.72Z" transform="translate(-0.66 -0.46)"/><path class="cls-1" d="M36.68,44.67H36a4.24,4.24,0,0,1-3.81-2.36l-1.93-3.85H18.35l-1.93,3.85a4.24,4.24,0,0,1-3.81,2.36h-.67a4.26,4.26,0,0,1-3.28-1.55,4.2,4.2,0,0,1-.9-3.52l1.78-9.27h0a8.15,8.15,0,0,1,8-6.6H31.09a8.14,8.14,0,0,1,8,6.6l1.79,9.27a4.27,4.27,0,0,1-4.19,5.07Zm-18.57-7h12.4a.38.38,0,0,1,.35.21l2,4.06A3.48,3.48,0,0,0,36,43.89h.67a3.48,3.48,0,0,0,3.42-4.15l-1.78-9.26a7.38,7.38,0,0,0-7.23-6H17.53a7.38,7.38,0,0,0-7.23,6L8.52,39.74a3.48,3.48,0,0,0,3.42,4.15h.67A3.48,3.48,0,0,0,15.73,42l2-4.06A.39.39,0,0,1,18.11,37.69Z" transform="translate(-0.66 -0.46)"/><path class="cls-1" d="M45.64,32.26H40.56a.38.38,0,0,1-.38-.39.39.39,0,0,1,.38-.39h5.08a1.55,1.55,0,0,0,1.55-1.55V2.79a1.55,1.55,0,0,0-1.55-1.55H3A1.55,1.55,0,0,0,1.43,2.79V29.93A1.55,1.55,0,0,0,3,31.48H8.06a.39.39,0,0,1,.38.39.38.38,0,0,1-.38.39H3A2.32,2.32,0,0,1,.66,29.93V2.79A2.33,2.33,0,0,1,3,.46H45.64A2.33,2.33,0,0,1,48,2.79V29.93A2.32,2.32,0,0,1,45.64,32.26Z" transform="translate(-0.66 -0.46)"/><path class="cls-1" d="M44.47,29.93H40.09a.39.39,0,1,1,0-.77h4.38a.39.39,0,0,0,.39-.39V4a.38.38,0,0,0-.39-.38H4.15A.38.38,0,0,0,3.76,4V28.77a.39.39,0,0,0,.39.39H8.53a.39.39,0,1,1,0,.77H4.15A1.17,1.17,0,0,1,3,28.77V4A1.17,1.17,0,0,1,4.15,2.79H44.47A1.17,1.17,0,0,1,45.64,4V28.77A1.17,1.17,0,0,1,44.47,29.93Z" transform="translate(-0.66 -0.46)"/><circle class="cls-1" cx="31.41" cy="30.63" r="3.49"/><path class="cls-1" d="M32.07,35a3.88,3.88,0,1,1,3.87-3.87A3.88,3.88,0,0,1,32.07,35Zm0-7a3.11,3.11,0,1,0,3.1,3.11A3.11,3.11,0,0,0,32.07,28Z" transform="translate(-0.66 -0.46)"/><path class="cls-1" d="M19.27,29.9H17.72V28.35a.78.78,0,0,0-.78-.78h-.77a.78.78,0,0,0-.78.78V29.9H13.84a.77.77,0,0,0-.77.78v.77a.77.77,0,0,0,.77.78h1.55v1.55a.77.77,0,0,0,.78.77h.77a.77.77,0,0,0,.78-.77V32.23h1.55a.78.78,0,0,0,.78-.78v-.77A.78.78,0,0,0,19.27,29.9Z" transform="translate(-0.66 -0.46)"/><path class="cls-1" d="M16.94,34.94h-.77A1.17,1.17,0,0,1,15,33.78V32.61H13.84a1.16,1.16,0,0,1-1.16-1.16v-.77a1.16,1.16,0,0,1,1.16-1.17H15V28.35a1.17,1.17,0,0,1,1.17-1.16h.77a1.17,1.17,0,0,1,1.17,1.16v1.16h1.16a1.16,1.16,0,0,1,1.16,1.17v.77a1.16,1.16,0,0,1-1.16,1.16H18.11v1.17A1.17,1.17,0,0,1,16.94,34.94Zm-3.1-4.65a.39.39,0,0,0-.39.39v.77a.4.4,0,0,0,.39.39h1.55a.38.38,0,0,1,.39.39v1.55a.39.39,0,0,0,.39.39h.77a.39.39,0,0,0,.39-.39V32.23a.38.38,0,0,1,.39-.39h1.55a.4.4,0,0,0,.39-.39v-.77a.39.39,0,0,0-.39-.39H17.72a.39.39,0,0,1-.39-.39V28.35a.39.39,0,0,0-.39-.39h-.77a.39.39,0,0,0-.39.39V29.9a.39.39,0,0,1-.39.39Z" transform="translate(-0.66 -0.46)"/><line class="cls-1" x1="31.41" y1="27.14" x2="31.41" y2="29.08"/><path class="cls-1" d="M32.07,29.93a.38.38,0,0,1-.39-.39V27.61a.39.39,0,1,1,.77,0v1.93A.38.38,0,0,1,32.07,29.93Z" transform="translate(-0.66 -0.46)"/><line class="cls-1" x1="31.41" y1="32.18" x2="31.41" y2="34.12"/><path class="cls-1" d="M32.07,35a.38.38,0,0,1-.39-.38V32.65a.39.39,0,1,1,.77,0v1.94A.38.38,0,0,1,32.07,35Z" transform="translate(-0.66 -0.46)"/><line class="cls-1" x1="34.9" y1="30.63" x2="32.96" y2="30.63"/><path class="cls-1" d="M35.56,31.48H33.62a.39.39,0,1,1,0-.77h1.94a.39.39,0,0,1,0,.77Z" transform="translate(-0.66 -0.46)"/><line class="cls-1" x1="29.86" y1="30.63" x2="27.92" y2="30.63"/><path class="cls-1" d="M30.51,31.48H28.58a.39.39,0,1,1,0-.77h1.93a.39.39,0,1,1,0,.77Z" transform="translate(-0.66 -0.46)"/><rect class="cls-1" x="21.71" y="32.96" width="3.88" height="2.33" rx="1"/><path class="cls-1" d="M25.47,36.14H23.15A1.18,1.18,0,0,1,22,35V34.2A1.18,1.18,0,0,1,23.15,33h2.32a1.17,1.17,0,0,1,1.17,1.17V35A1.17,1.17,0,0,1,25.47,36.14Zm-2.32-2.33a.38.38,0,0,0-.39.39V35a.38.38,0,0,0,.39.39h2.32a.38.38,0,0,0,.39-.39V34.2a.38.38,0,0,0-.39-.39Z" transform="translate(-0.66 -0.46)"/><path class="cls-1" d="M25.18,9.65a6.21,6.21,0,1,0,0,8.77L20.79,14Z" transform="translate(-0.66 -0.46)"/><path class="cls-1" d="M20.79,20.63A6.6,6.6,0,1,1,25.46,9.37a.39.39,0,0,1,0,.55L21.34,14l4.12,4.12a.39.39,0,0,1,0,.55A6.6,6.6,0,0,1,20.79,20.63Zm0-12.41a5.82,5.82,0,1,0,3.83,10.19l-4.1-4.1a.39.39,0,0,1,0-.55l4.1-4.1A5.76,5.76,0,0,0,20.79,8.22Z" transform="translate(-0.66 -0.46)"/><circle class="cls-1" cx="27.56" cy="13.57" r="1.16"/><path class="cls-1" d="M28.21,15.59A1.56,1.56,0,1,1,29.77,14,1.56,1.56,0,0,1,28.21,15.59Zm0-2.33A.78.78,0,1,0,29,14,.78.78,0,0,0,28.21,13.26Z" transform="translate(-0.66 -0.46)"/><circle class="cls-1" cx="32.21" cy="13.57" r="1.16"/><path class="cls-1" d="M32.87,15.59A1.56,1.56,0,1,1,34.42,14,1.55,1.55,0,0,1,32.87,15.59Zm0-2.33a.78.78,0,1,0,.77.77A.78.78,0,0,0,32.87,13.26Z" transform="translate(-0.66 -0.46)"/><path class="cls-1" d="M42.92,11.71a.4.4,0,0,1-.39-.39V5.89H37.11a.39.39,0,1,1,0-.77h5.81a.38.38,0,0,1,.39.38v5.82A.39.39,0,0,1,42.92,11.71Z" transform="translate(-0.66 -0.46)"/><path class="cls-1" d="M20.82,41.56H19.27a.39.39,0,1,1,0-.77h1.55a.39.39,0,1,1,0,.77Z" transform="translate(-0.66 -0.46)"/><path class="cls-1" d="M29.35,41.56h-7a.39.39,0,1,1,0-.77h7a.39.39,0,1,1,0,.77Z" transform="translate(-0.66 -0.46)"/></svg>