<svg id="Layer_1" data-name="Layer 1" xmlns="http://www.w3.org/2000/svg" viewBox="0 0 48 48"><defs><style>.cls-1{fill:#fff;}</style></defs><title>javascript</title><path class="cls-1" d="M48,10q0,23.48,0,47c0,.68-.13.82-.82.82q-23.47,0-47,0V11.57a7.09,7.09,0,0,0,0-.8C.15,10.2.41,10,1,10a8.84,8.84,0,0,0,.89,0Zm-11,44c.38,0,1-.07,1.63-.17,3-.49,5-2.18,5.49-4.73a6.31,6.31,0,0,0-3.13-7,26.25,26.25,0,0,0-3.66-1.77,9.62,9.62,0,0,1-2.1-1.12,2,2,0,0,1-.7-2.23,1.82,1.82,0,0,1,1.79-1.33A2.72,2.72,0,0,1,39,36.92c.34.54.61.53,1.08.19a23.41,23.41,0,0,1,2.26-1.45c.54-.3.48-.56.18-1-1.69-2.5-4.14-3.19-7-2.91a5.86,5.86,0,0,0-5.42,4.4A6.23,6.23,0,0,0,32.76,43a13.69,13.69,0,0,0,2.35,1.28,25.91,25.91,0,0,1,3.42,1.6,2.12,2.12,0,0,1,1.11,2.26A2.09,2.09,0,0,1,38,49.83a4.68,4.68,0,0,1-5.32-1.89c-.35-.45-.59-.61-1.12-.26A19.2,19.2,0,0,1,29.25,49c-.65.31-.59.63-.24,1.14C30.85,52.9,33.51,53.94,36.93,54ZM26.13,40.6h0c0-2.62,0-5.24,0-7.86,0-.58-.15-.84-.78-.8a21.79,21.79,0,0,1-2.68,0c-.78-.05-1,.19-1,1,0,4.57,0,9.15,0,13.72a11.9,11.9,0,0,1-.14,1.68A1.87,1.87,0,0,1,19.73,50a2.77,2.77,0,0,1-2.92-1.62c-.29-.53-.54-.65-1.06-.29-.8.54-1.62,1-2.46,1.5-.47.26-.47.49-.23.93a7.52,7.52,0,0,0,8.47,3.28c3-.72,4.56-2.85,4.6-6.33C26.15,45.17,26.13,42.89,26.13,40.6Z" transform="translate(0 -9.81)"/><path class="cls-1" d="M48,10l-46.13,0A8.84,8.84,0,0,1,1,10c-.55,0-.81.16-.75.73a7.09,7.09,0,0,1,0,.8V57.79c-.32.07-.2-.18-.2-.3Q0,33.91,0,10.33c0-.71.39-.49.72-.49h47C47.8,9.84,48.05,9.71,48,10Z" transform="translate(0 -9.81)"/></svg>