<svg id="Layer_1" data-name="Layer 1" xmlns="http://www.w3.org/2000/svg" viewBox="0 0 48 29.37"><defs><style>.cls-1{fill:#fff;}</style></defs><title>nodeJS</title><path class="cls-1" d="M23.39,48.58c-.5-.42-1.11-.65-1.63-1,.52-.44.75-.5,1.26-.12a1.15,1.15,0,0,0,1.48,0c1.11-.71,2.27-1.34,3.41-2a.48.48,0,0,0,.31-.5c0-1.5,0-3,0-4.51a.5.5,0,0,0-.3-.51c-1.29-.73-2.56-1.47-3.84-2.22a.54.54,0,0,0-.63,0c-1.29.75-2.58,1.5-3.88,2.23a.49.49,0,0,0-.28.48c0,1.52,0,3,0,4.55a.43.43,0,0,0,.26.45c.33.17.63.38,1,.55.63.33,1.07.06,1.07-.64q0-2.22,0-4.44c0-.31.08-.42.41-.42s.41.12.41.43c0,1.51,0,3,0,4.52a1.33,1.33,0,0,1-2,1.33,11.54,11.54,0,0,1-1.46-.81.87.87,0,0,1-.41-.79V40.22a.91.91,0,0,1,.48-.84l4.29-2.48a.94.94,0,0,1,1,0l4.27,2.46a1,1,0,0,1,.5,1q0,2.34,0,4.68a1.09,1.09,0,0,1-.63,1.08l-3.91,2.26c-.12.07-.28.1-.35.25Z" transform="translate(0 -19.21)"/><path class="cls-1" d="M35.47,27.88c0,2.12,0,4.23,0,6.35a.88.88,0,0,1-.51.87c-1.39.79-2.78,1.59-4.15,2.4a.88.88,0,0,1-1,0q-2.1-1.24-4.22-2.44a.8.8,0,0,1-.46-.78q0-2.46,0-4.92a.8.8,0,0,1,.46-.79c1.41-.8,2.82-1.6,4.22-2.43a.81.81,0,0,1,1,0,5.11,5.11,0,0,0,.6.34c.16.09.31.28.51.19s.11-.34.11-.52c0-2.11,0-4.23,0-6.34a1.82,1.82,0,0,1,0-.33c.05-.24.19-.38.43-.24.92.5,1.83,1,2.73,1.52.29.16.27.44.27.72ZM32,32c0-1.13,0-1.09-.86-1.66a1.37,1.37,0,0,0-1.7,0,1.52,1.52,0,0,0-.9,1.53,1.49,1.49,0,0,0,.88,1.51,1.46,1.46,0,0,0,1.74,0C31.78,33,32.27,32.64,32,32Z" transform="translate(0 -19.21)"/><path class="cls-1" d="M22.89,31.77c0,.83,0,1.65,0,2.48a.73.73,0,0,1-.42.72c-1.44.82-2.89,1.65-4.33,2.49a.74.74,0,0,1-.83,0Q15.2,36.21,13.05,35a.76.76,0,0,1-.44-.75c0-1.65,0-3.3,0-5a.79.79,0,0,1,.43-.76c1.43-.81,2.86-1.64,4.29-2.47a.76.76,0,0,1,.83,0l4.26,2.46a.82.82,0,0,1,.47.82c0,.81,0,1.63,0,2.44Z" transform="translate(0 -19.21)"/><path class="cls-1" d="M0,32.57c0-1.11,0-2.22,0-3.33a.82.82,0,0,1,.44-.79c1.44-.81,2.87-1.64,4.3-2.47a.76.76,0,0,1,.83,0c1.44.84,2.89,1.67,4.33,2.49a.77.77,0,0,1,.43.73c0,2.26,0,4.52,0,6.79,0,.46-.17.55-.59.31-.8-.45-1.59-.92-2.4-1.37a.79.79,0,0,1-.45-.78c0-1,0-2,0-2.93a.77.77,0,0,0-.46-.78c-1.56-.86-1-.83-2.52,0a.82.82,0,0,0-.47.81c0,1,0,2,0,2.93a.75.75,0,0,1-.43.75c-.82.45-1.63.93-2.44,1.39C.19,36.52,0,36.42,0,36V32.57Z" transform="translate(0 -19.21)"/><path class="cls-1" d="M48,28.89v1.7c-.06.19-.21.27-.37.36l-2.42,1.41c-.44.26-.68.14-.6-.37a1.6,1.6,0,0,0-1.11-1.9,1.29,1.29,0,0,0-1.22,0,1.7,1.7,0,0,0-1.15,2,1.14,1.14,0,0,0,.63,1c1.32.71,2.62,1.48,3.92,2.23.16.09.37.15.38.38s-.21.29-.37.38L43.35,37.4a.82.82,0,0,1-.91,0q-2.09-1.21-4.2-2.4a.82.82,0,0,1-.47-.81c0-1.63,0-3.26,0-4.88a.79.79,0,0,1,.45-.79q2.12-1.2,4.22-2.44a.88.88,0,0,1,1,0c1.37.82,2.76,1.61,4.14,2.41C47.73,28.59,47.93,28.67,48,28.89Z" transform="translate(0 -19.21)"/><path class="cls-1" d="M25,40.36a3,3,0,0,1,1.14.17A1.37,1.37,0,0,1,27,41.59c0,.13.14.37-.12.39s-.53.16-.65-.13-.3-.59-.65-.66a2.54,2.54,0,0,0-1.52.07.46.46,0,0,0-.29.49c0,.24.19.32.38.36l1.6.28a4.9,4.9,0,0,1,.55.13,1.09,1.09,0,0,1,.91,1,1.31,1.31,0,0,1-.7,1.32,3.35,3.35,0,0,1-2,.27,2.73,2.73,0,0,1-1-.29,1.27,1.27,0,0,1-.65-.8c0-.2-.21-.49.1-.57s.62-.17.71.32.39.5.73.55a4.36,4.36,0,0,0,1.3,0,1.1,1.1,0,0,0,.35-.11.55.55,0,0,0,.33-.55c0-.25-.19-.34-.4-.41A10.29,10.29,0,0,0,24.64,43a5.39,5.39,0,0,1-.8-.16,1.08,1.08,0,0,1-.89-1,1.24,1.24,0,0,1,.72-1.26A2.68,2.68,0,0,1,25,40.36Z" transform="translate(0 -19.21)"/><path class="cls-1" d="M43.92,31.74c-.05.22.09.46-.11.6s-.59.49-.91.47a2,2,0,0,1-.88-.47c-.21-.15-.09-.43-.1-.65s-.09-.44.1-.57.59-.5.91-.47a1.9,1.9,0,0,1,.88.47C44,31.28,43.85,31.55,43.92,31.74Z" transform="translate(0 -19.21)"/><path class="cls-1" d="M31.09,39.33a.8.8,0,0,1,0,1.18.78.78,0,0,1-1.15,0l.07-.07a.72.72,0,0,0,1-1Z" transform="translate(0 -19.21)"/><path class="cls-1" d="M29.93,39.34a.76.76,0,0,1,1.16,0L31,39.4a.81.81,0,0,0-1,0Z" transform="translate(0 -19.21)"/><path class="cls-1" d="M29.93,40.49a.76.76,0,0,1,0-1.15l.07.06a.8.8,0,0,0,0,1Z" transform="translate(0 -19.21)"/><path class="cls-1" d="M30.25,40.38a2.3,2.3,0,0,1,0-.78c0-.24.22-.13.35-.14a.21.21,0,0,1,.26.24c0,.1-.07.19,0,.31s.14.28,0,.33-.11-.17-.18-.24-.21-.12-.23.07A.21.21,0,0,1,30.25,40.38Z" transform="translate(0 -19.21)"/></svg>