<svg id="Layer_1" data-name="Layer 1" xmlns="http://www.w3.org/2000/svg" viewBox="0 0 48 48"><defs><style>.cls-1{fill:#fff;}</style></defs><title>php</title><path class="cls-1" d="M22.54,10h2.91c0,.06.07,0,.12.05.59,0,1.18.1,1.77.18a23.33,23.33,0,0,1,7.84,2.53A24,24,0,0,1,47.79,37.18,23.1,23.1,0,0,1,45.35,45,23.87,23.87,0,0,1,34.24,55.7a23.59,23.59,0,0,1-13.6,2.06,22.94,22.94,0,0,1-7.81-2.52A24,24,0,0,1,2.39,44.45,23.69,23.69,0,0,1,.08,36.08,1.43,1.43,0,0,0,0,35.5v-3c.09-.06.05-.15.05-.22a23.18,23.18,0,0,1,.54-3.6,24.09,24.09,0,0,1,21.32-18.6A1.68,1.68,0,0,0,22.54,10ZM13.28,28.94H10.36c-.15,0-.22,0-.25.2-.34,1.78-.7,3.56-1,5.35-.47,2.35-.94,4.71-1.4,7.06,0,.12-.06.21.13.21l2.62.06c.16,0,.22,0,.25-.2.17-1,.37-2,.54-3,0-.17.09-.21.25-.2h2.91a4.7,4.7,0,0,0,1.4-.21,5.8,5.8,0,0,0,4-6,3.15,3.15,0,0,0-1.07-2.36,4.11,4.11,0,0,0-2.58-.9C15.19,28.91,14.24,28.94,13.28,28.94Zm16.35,12.8,2.79.06c.17,0,.22,0,.25-.21.17-1,.36-2,.53-2.92,0-.17.09-.23.27-.23H36.3a5.24,5.24,0,0,0,3.93-1.75,5.85,5.85,0,0,0,1.56-4.6,3.11,3.11,0,0,0-1.1-2.3,4.09,4.09,0,0,0-2.55-.86c-1.91,0-3.83,0-5.74,0-.21,0-.26.08-.29.25q-.8,4-1.58,8C30.23,38.69,29.93,40.2,29.63,41.74Zm-2-3.15h1.43c.14,0,.2,0,.22-.18q.54-3.22,1.09-6.44a2.13,2.13,0,0,0-1.12-2.38,4.39,4.39,0,0,0-2.16-.52c-.83,0-1.67,0-2.5,0-.28,0-.28,0-.23-.28.18-1,.35-1.92.53-2.88,0-.17,0-.21-.16-.21-.84,0-1.68,0-2.51,0-.23,0-.31.06-.36.29-.4,2.12-.83,4.23-1.24,6.35s-.79,4-1.19,6c0,.19,0,.23.2.23l2.55-.07c.14,0,.16-.07.18-.18l.3-1.49c.36-1.76.71-3.51,1.06-5.27,0-.16.09-.21.25-.2s.56,0,.84,0a16.65,16.65,0,0,1,1.73,0,.66.66,0,0,1,.66.81c0,.24-.07.48-.11.72-.34,1.83-.67,3.65-1,5.48,0,.16,0,.17.15.17Z" transform="translate(0 -10)"/><path class="cls-1" d="M12.8,36c-.16,0-.43,0-.71,0s-.23-.06-.2-.26c.26-1.44.51-2.88.76-4.33,0-.11,0-.19.18-.18.78,0,1.56,0,2.34,0a1.87,1.87,0,0,1,.82.25,1.22,1.22,0,0,1,.67,1.08,4.44,4.44,0,0,1-.43,2,2.5,2.5,0,0,1-1.7,1.32A4.46,4.46,0,0,1,12.8,36Z" transform="translate(0 -10)"/><path class="cls-1" d="M36,31.24c.43,0,.85,0,1.27,0A1.46,1.46,0,0,1,38.72,33a4.5,4.5,0,0,1-.41,1.6A2.68,2.68,0,0,1,36.17,36a10.06,10.06,0,0,1-1.82,0c-.43,0-.42,0-.35-.44.25-1.37.49-2.75.72-4.12,0-.16.08-.21.23-.2C35.3,31.25,35.64,31.24,36,31.24Z" transform="translate(0 -10)"/></svg>