<svg id="Layer_1" data-name="Layer 1" xmlns="http://www.w3.org/2000/svg" viewBox="0 0 48 47.93"><defs><style>.cls-1{fill:#fff;}</style></defs><title>python</title><path class="cls-1" d="M25.55,10a3.38,3.38,0,0,0,.84.09,19.62,19.62,0,0,1,4.44.8,10.59,10.59,0,0,1,1.87.79,6.18,6.18,0,0,1,2.64,2.69,4,4,0,0,1,.39,1.7q0,5.41,0,10.85a6.8,6.8,0,0,1-.63,3,5.65,5.65,0,0,1-3.73,3,8.34,8.34,0,0,1-2.38.33H17.42a7.18,7.18,0,0,0-3,.63,5.54,5.54,0,0,0-2.72,2.74A7.66,7.66,0,0,0,11,39.08a9.4,9.4,0,0,0-.05,1.06q0,2.73,0,5.46c0,.2-.05.25-.25.25-1.22,0-2.45,0-3.67,0a5.29,5.29,0,0,1-3.55-1.3A8.47,8.47,0,0,1,1,40.66a16.64,16.64,0,0,1-.76-3.48,26.22,26.22,0,0,1-.13-4.93,14.6,14.6,0,0,1,1.41-5.8A7,7,0,0,1,4.9,23a6,6,0,0,1,2.94-.55h16c.22,0,.31,0,.3-.29a10.84,10.84,0,0,1,0-1.14c0-.19,0-.24-.23-.24H12.69c-.18,0-.23,0-.22-.22,0-1.64,0-3.28,0-4.92a4,4,0,0,1,2-3.65,9.91,9.91,0,0,1,3.38-1.39A23.15,23.15,0,0,1,22,10.08c.06,0,.14,0,.18-.05Zm-8.07,7.89a2.1,2.1,0,1,0-2.1-2.09A2.11,2.11,0,0,0,17.48,17.92Z" transform="translate(0 -10.03)"/><path class="cls-1" d="M48,37.36a8.85,8.85,0,0,0-.23,1.14,10.47,10.47,0,0,1-1.93,4.44,6.51,6.51,0,0,1-5.39,2.58c-4,0-8.08,0-12.11,0H24.28c-.18,0-.24,0-.24.23a11.42,11.42,0,0,1,0,1.17c0,.21.06.25.26.25h10c.42,0,.83,0,1.25,0,.18,0,.22.06.22.23,0,1.69,0,3.39,0,5.08a3.86,3.86,0,0,1-.3,1.62,3.46,3.46,0,0,1-.57.89,8,8,0,0,1-4.56,2.4,21.06,21.06,0,0,1-3.88.53c-1.25.07-2.51.08-3.77,0a20.48,20.48,0,0,1-5-.75,9,9,0,0,1-3.44-1.75,4.86,4.86,0,0,1-1.78-3.92c0-3.48,0-7,0-10.43a7.5,7.5,0,0,1,.35-2.4A5.42,5.42,0,0,1,16.1,35.3a8,8,0,0,1,3.06-.58H30.48A8.23,8.23,0,0,0,33,34.39a5.77,5.77,0,0,0,3.85-3.77,7.92,7.92,0,0,0,.47-2.78V22.41c0-.2,0-.25.24-.25,1.31,0,2.61,0,3.92,0a5.18,5.18,0,0,1,3.4,1.37,8.3,8.3,0,0,1,2.4,3.79,13.64,13.64,0,0,1,.56,2.2c.06.36.14.72.21,1.08ZM30.68,54.27a2.1,2.1,0,0,0,2.12-2.08,2.07,2.07,0,0,0-2.07-2.12,2.1,2.1,0,1,0-.05,4.2Z" transform="translate(0 -10.03)"/></svg>