<svg id="Layer_1" data-name="Layer 1" xmlns="http://www.w3.org/2000/svg" viewBox="0 0 48 46.39"><defs><style>.cls-1{fill:#fff;}</style></defs><title>react</title><path class="cls-1" d="M34.94,16.12a12,12,0,0,1-.39,3.37c-.2.73,0,1.08.73,1.31a14.39,14.39,0,0,1,4.38,2.14c2.48,1.9,2.51,4.45.05,6.39a13.27,13.27,0,0,1-4.27,2.09c-.87.27-1.09.73-.85,1.59a12.54,12.54,0,0,1,.24,4.88c-.34,2.82-2.41,4-5.08,3.09a11.91,11.91,0,0,1-4.2-2.71,1.11,1.11,0,0,0-1.81,0A12.55,12.55,0,0,1,19.55,41c-2.72,1-4.78-.29-5.16-3.15a11.47,11.47,0,0,1,.22-4.37c.29-1.13.09-1.86-1.22-2.19A10.38,10.38,0,0,1,9.2,29a3.55,3.55,0,0,1,0-5.76,10,10,0,0,1,4.19-2.21c1.31-.34,1.5-1,1.23-2.21a11.84,11.84,0,0,1-.23-4.24c.36-3,2.46-4.28,5.29-3.21a11.22,11.22,0,0,1,4,2.6c.68.66,1.15.72,1.88,0a11.19,11.19,0,0,1,4.57-2.8c2.58-.73,4.38.46,4.75,3.13C34.92,14.94,34.91,15.53,34.94,16.12Zm-9.85,4.2c-1.24,0-2.08,0-2.91,0a1.22,1.22,0,0,0-1.09.49,13.42,13.42,0,0,0-2.82,5.12c-.3,1.53,1.14,2.79,1.84,4.15.07.15.2.27.27.42A2.54,2.54,0,0,0,23,32.09a9.07,9.07,0,0,1,1.38,0c2.76.45,4.31-.81,5.59-3.24,1.06-2,1.19-3.52,0-5.49S27.54,19.47,25.09,20.32ZM18.6,12c-2,0-2.81.61-3.15,2a12.33,12.33,0,0,0,.19,5.47c.15.7.55.77,1.21.71,2.64-.25,5-1,6.24-3.59a2.91,2.91,0,0,1,.49-.57.53.53,0,0,0,.05-.79C22,13.73,20.35,12.27,18.6,12ZM34.07,36c0-.42-.11-1.08-.18-1.74-.23-2.19-.34-2.27-2.43-1.89a9.13,9.13,0,0,1-1.37.16,3.29,3.29,0,0,0-2.66,1.56c-2.32,3.05-2.38,3.05.93,5.18,1.25.81,2.66,1.71,4.19.87S34,37.72,34.07,36ZM16.59,32.15a.71.71,0,0,0-.94.57,12.17,12.17,0,0,0-.17,5.72,2.38,2.38,0,0,0,3.17,1.83,10.9,10.9,0,0,0,4.9-3.15.65.65,0,0,0,0-1c-.78-.93-1.53-1.88-2.3-2.82a1.36,1.36,0,0,0-.79-.59C19.16,32.51,17.87,32.33,16.59,32.15ZM34.08,16c0-.41,0-.91-.13-1.41-.34-1.91-1.26-2.77-3-2.54-2.19.29-3.73,1.77-5.21,3.26-.35.35-.06.7.18,1,1.43,1.79,2.6,4,5.47,3.65a2.69,2.69,0,0,1,1,.23c.72.23,1.11-.05,1.3-.75A16.42,16.42,0,0,0,34.08,16Zm6.58,10.21A2.48,2.48,0,0,0,40,24.62a11,11,0,0,0-5.24-3c-.56-.18-.83.14-1,.62-1,2.33-1.94,4.65-.24,7.07a1.23,1.23,0,0,1,.14.47c.2.93.81,1.12,1.6.82a12.69,12.69,0,0,0,4.08-2.15A3.44,3.44,0,0,0,40.66,26.16ZM17,26.17c-.57-1.48-1.1-2.89-1.66-4.27a.65.65,0,0,0-.87-.3,11.22,11.22,0,0,0-5.08,2.85,2.43,2.43,0,0,0,.1,3.49,10.87,10.87,0,0,0,4.76,2.66c.36.12.85.2,1-.2C15.89,29,16.43,27.56,17,26.17Zm7.75-6.67c.62-.18,1.61.34,1.94-.36S26,18,25.61,17.32a1,1,0,0,0-.17-.18c-.56-.68-1.12-.63-1.65,0s-1.44,1.18-1.17,1.91S24,19.33,24.74,19.5Zm5.53,12.2c.77-.14,1.51-.25,2.23-.43a.67.67,0,0,0,.51-1c-.24-.66-.46-1.33-.75-2s-.72-.74-1.11-.11c-.51.8-1,1.65-1.41,2.49C29.44,31.3,29.57,31.69,30.27,31.7Zm.13-11c-.69-.07-1,.22-.61,1s.86,1.53,1.32,2.27.87.62,1.14-.1c1-2.72,1.5-2.77-1.6-3.12A1.48,1.48,0,0,1,30.4,20.66ZM16.34,30.41c0,.29,0,.66.3.77a7.35,7.35,0,0,0,2.69.52c.54,0,.5-.47.29-.85-.5-.87-1-1.74-1.52-2.6-.28-.45-.68-.6-1-.07A5.62,5.62,0,0,0,16.34,30.41Zm2.85-9.79c-2.9.1-3.36.85-2.22,3.22,0,.07.07.15.11.22.29.5.61.58.93.05.52-.86,1-1.74,1.54-2.6S19.57,20.63,19.19,20.62Zm5.72,12.23H23.23c-.3,0-.71.13-.64.45a3.9,3.9,0,0,0,1.78,2.31c.61.42,1-.28,1.26-.7s1.33-1,1-1.72S25.39,33,24.91,32.85Z" transform="translate(0 -11.02)"/><path class="cls-1" d="M0,50.38c0-1.89,0-3.78,0-5.67,0-.78.27-1,1-1,1.55,0,3.11,0,4.66,0a3.72,3.72,0,0,1,3.63,3.08c.35,2.2-.51,3.83-2.47,4.52-.76.26-.94.54-.45,1.23.76,1.06,1.48,2.14,2.14,3.26.21.34,1,.8.24,1.21a1.08,1.08,0,0,1-1.48-.56c-.68-1.16-1.43-2.27-2.14-3.41a2.73,2.73,0,0,0-3.29-1.29c-.54.15-.57.52-.57,1V56c0,.51.06,1.09-.7,1.07s-.58-.59-.58-1C0,54.16,0,52.27,0,50.38ZM1.3,47.73c0,.55,0,1.1,0,1.64-.1,1,.33,1.26,1.24,1.19s1.76,0,2.64,0A3,3,0,0,0,8,47.74a2.86,2.86,0,0,0-2.75-2.88c-.37,0-.75,0-1.13,0C1.3,44.85,1.3,44.85,1.3,47.73Z" transform="translate(0 -11.02)"/><path class="cls-1" d="M16.5,52.62c-1,0-1.94,0-2.9,0s-1.13.48-.89,1.28c.68,2.23,3.27,3.12,5.61,2,.36-.18.78-.82,1.15-.19s-.32.84-.72,1.06a5,5,0,0,1-7.09-2.08,5.23,5.23,0,0,1,2.81-7.18,4.59,4.59,0,0,1,6,4.24c0,.63-.19.94-.86.93C18.59,52.61,17.55,52.62,16.5,52.62Zm-.68-.74h2.25c1.22,0,1.47-.42,1-1.55a3.41,3.41,0,0,0-6.49.49c-.2.7,0,1,.73,1.06Z" transform="translate(0 -11.02)"/><path class="cls-1" d="M30.77,53.35v2.77c0,.37,0,.79-.42.94a.67.67,0,0,1-.87-.31c-.37-.66-.74-.24-1.13,0a4,4,0,0,1-4.06.19,3,3,0,0,1-1.54-3.17,2.84,2.84,0,0,1,2.31-2.49,4.23,4.23,0,0,1,3.38.52c.85.58,1,.14,1-.6.1-2.17-1.61-3.42-3.79-2.73-.39.13-.75.36-1.13.53s-.72.67-1,.05.19-.77.55-1a5.57,5.57,0,0,1,4.23-.68c1.6.36,2.41,1.5,2.48,3.34C30.8,51.59,30.77,52.47,30.77,53.35Zm-4.1-1.48a2.4,2.4,0,1,0-.06,4.77c1.67,0,2.95-1,3-2.36S28.35,51.87,26.67,51.87Z" transform="translate(0 -11.02)"/><path class="cls-1" d="M34.79,52.86c0,2.76,2.69,4.33,5.5,2.73.33-.19.66-.49,1-.06s-.07.76-.38,1c-1.58,1.33-4.71,1-6.19-.65a5.37,5.37,0,0,1,1.91-8.39,4.21,4.21,0,0,1,4.37.67c.29.24.61.54.25,1s-.6.17-.88-.06a3.12,3.12,0,0,0-3.85-.24C35.19,49.62,34.76,50.91,34.79,52.86Z" transform="translate(0 -11.02)"/><path class="cls-1" d="M44.45,52.34c0-.75,0-1.51,0-2.26s.1-1.57-1.08-1.52c-.34,0-.52-.24-.49-.59a.46.46,0,0,1,.48-.48c1,0,1.14-.57,1.1-1.39,0-.51-.2-1.27.58-1.31s.62.77.59,1.25c-.07,1,.2,1.54,1.3,1.43.39,0,.79.05.76.59s-.44.56-.82.52c-1.06-.09-1.27.47-1.24,1.39.06,1.5,0,3,0,4.52,0,1,.33,1.86,1.63,1.68.32,0,.6,0,.68.38s-.24.54-.57.66a2,2,0,0,1-2.86-1.61,29.51,29.51,0,0,1,0-3.26Z" transform="translate(0 -11.02)"/><path class="cls-1" d="M27.31,26.23a2.69,2.69,0,1,1-5.38-.12,2.78,2.78,0,0,1,2.82-2.77A2.81,2.81,0,0,1,27.31,26.23Z" transform="translate(0 -11.02)"/></svg>