<svg id="Layer_1" data-name="Layer 1" xmlns="http://www.w3.org/2000/svg" viewBox="0 0 45.37 67.61"><defs><style>.cls-1{fill:#fff;}</style></defs><title>runnint</title><path class="cls-1" d="M13.05,66l-1.43-2.23h-.77V66h-.7V60.53h1.79a1.93,1.93,0,0,1,1.4.44,1.57,1.57,0,0,1,.47,1.18,1.53,1.53,0,0,1-.38,1.08,1.66,1.66,0,0,1-1.07.5L13.85,66Zm-2.2-2.74h1c.8,0,1.21-.35,1.21-1.06s-.41-1-1.21-1h-1Z" transform="translate(-2.63 -0.46)"/><path class="cls-1" d="M18.45,61.73V66h-.7V65a1.5,1.5,0,0,1-.58.8,1.75,1.75,0,0,1-1,.27A1.59,1.59,0,0,1,15,65.59a1.89,1.89,0,0,1-.46-1.37V61.73h.71v2.42a1.41,1.41,0,0,0,.32,1,1.16,1.16,0,0,0,.89.34,1.23,1.23,0,0,0,.93-.37,1.58,1.58,0,0,0,.35-1.1V61.73Z" transform="translate(-2.63 -0.46)"/><path class="cls-1" d="M23,62.14a1.94,1.94,0,0,1,.45,1.38V66h-.7V63.58a1.37,1.37,0,0,0-.33-1,1.17,1.17,0,0,0-.88-.34,1.21,1.21,0,0,0-.93.38,1.55,1.55,0,0,0-.35,1.09V66h-.71V61.73h.71v1a1.48,1.48,0,0,1,.58-.8,1.69,1.69,0,0,1,.95-.28A1.6,1.6,0,0,1,23,62.14Z" transform="translate(-2.63 -0.46)"/><path class="cls-1" d="M28,62.14a1.9,1.9,0,0,1,.46,1.38V66h-.7V63.58a1.37,1.37,0,0,0-.33-1,1.19,1.19,0,0,0-.88-.34,1.24,1.24,0,0,0-.94.38,1.55,1.55,0,0,0-.34,1.09V66h-.71V61.73h.71v1a1.47,1.47,0,0,1,.57-.8,1.74,1.74,0,0,1,1-.28A1.57,1.57,0,0,1,28,62.14Z" transform="translate(-2.63 -0.46)"/><path class="cls-1" d="M29.56,60.17a.51.51,0,0,1,.35-.12.5.5,0,0,1,.35.12.41.41,0,0,1,.13.32.39.39,0,0,1-.13.31.5.5,0,0,1-.35.12.51.51,0,0,1-.35-.12.42.42,0,0,1-.13-.31A.44.44,0,0,1,29.56,60.17Zm.7,1.56V66h-.7V61.73Z" transform="translate(-2.63 -0.46)"/><path class="cls-1" d="M34.84,62.14a1.94,1.94,0,0,1,.45,1.38V66h-.7V63.58a1.37,1.37,0,0,0-.33-1,1.17,1.17,0,0,0-.88-.34,1.21,1.21,0,0,0-.93.38,1.55,1.55,0,0,0-.35,1.09V66h-.71V61.73h.71v1a1.48,1.48,0,0,1,.58-.8,1.7,1.7,0,0,1,1-.28A1.6,1.6,0,0,1,34.84,62.14Z" transform="translate(-2.63 -0.46)"/><path class="cls-1" d="M39.18,62a1.69,1.69,0,0,1,.6.83V61.73h.7v4.33a2.23,2.23,0,0,1-.24,1,1.84,1.84,0,0,1-.7.71,2.1,2.1,0,0,1-1,.26,2.22,2.22,0,0,1-1.4-.42,1.74,1.74,0,0,1-.69-1.12h.69a1.21,1.21,0,0,0,.47.67,1.46,1.46,0,0,0,.89.25,1.29,1.29,0,0,0,.95-.37,1.39,1.39,0,0,0,.38-1V64.91a1.74,1.74,0,0,1-.6.83,1.81,1.81,0,0,1-1,.31,1.88,1.88,0,0,1-1-.27,1.81,1.81,0,0,1-.7-.75,2.64,2.64,0,0,1-.25-1.16,2.69,2.69,0,0,1,.25-1.17,1.84,1.84,0,0,1,.7-.76,2,2,0,0,1,1-.26A1.74,1.74,0,0,1,39.18,62Zm-1.9.73a1.88,1.88,0,0,0,0,2.29,1.38,1.38,0,0,0,1,.42,1.45,1.45,0,0,0,.75-.2,1.33,1.33,0,0,0,.51-.54,1.8,1.8,0,0,0,.19-.82,1.77,1.77,0,0,0-.19-.82,1.24,1.24,0,0,0-.51-.55,1.44,1.44,0,0,0-.75-.19A1.41,1.41,0,0,0,37.28,62.72Z" transform="translate(-2.63 -0.46)"/><path class="cls-1" d="M32.42,12.09a5,5,0,1,1,5-5A5.05,5.05,0,0,1,32.42,12.09Zm0-9.31A4.27,4.27,0,1,0,36.69,7,4.26,4.26,0,0,0,32.42,2.78Z" transform="translate(-2.63 -0.46)"/><path class="cls-1" d="M47.61,2.79H44.5a.38.38,0,0,1-.38-.39A.39.39,0,0,1,44.5,2h3.11A.39.39,0,0,1,48,2.4.38.38,0,0,1,47.61,2.79Z" transform="translate(-2.63 -0.46)"/><path class="cls-1" d="M46.06,4.34A.38.38,0,0,1,45.67,4V.85a.39.39,0,1,1,.77,0V4A.38.38,0,0,1,46.06,4.34Z" transform="translate(-2.63 -0.46)"/><path class="cls-1" d="M44.5,7.06H41.4A.4.4,0,0,1,41,6.67a.39.39,0,0,1,.39-.39h3.1a.38.38,0,0,1,.39.39A.39.39,0,0,1,44.5,7.06Z" transform="translate(-2.63 -0.46)"/><path class="cls-1" d="M43,8.61a.39.39,0,0,1-.38-.39V5.12a.39.39,0,1,1,.77,0v3.1A.39.39,0,0,1,43,8.61Z" transform="translate(-2.63 -0.46)"/><path class="cls-1" d="M15,6.66H6.12a.39.39,0,0,1-.39-.39.38.38,0,0,1,.39-.39H15a.38.38,0,0,1,.39.39A.39.39,0,0,1,15,6.66Z" transform="translate(-2.63 -0.46)"/><path class="cls-1" d="M4.57,6.66H3a.39.39,0,0,1-.38-.39A.38.38,0,0,1,3,5.88H4.57A.38.38,0,0,1,5,6.27.39.39,0,0,1,4.57,6.66Z" transform="translate(-2.63 -0.46)"/><path class="cls-1" d="M47.61,36.9H38.69a.39.39,0,1,1,0-.77h8.92a.39.39,0,0,1,0,.77Z" transform="translate(-2.63 -0.46)"/><path class="cls-1" d="M37.14,36.9H35.59a.39.39,0,1,1,0-.77h1.55a.39.39,0,0,1,0,.77Z" transform="translate(-2.63 -0.46)"/><path class="cls-1" d="M12.6,20.72a2.32,2.32,0,0,1-1.31-.4h0a2.31,2.31,0,0,1-.61-3.23l4-5.77a2.3,2.3,0,0,1,1.92-1h8.53a2.33,2.33,0,0,1,0,4.65H17.77l-3.25,4.75A2.32,2.32,0,0,1,12.6,20.72Zm-.87-1a1.55,1.55,0,0,0,2.15-.41l3.37-4.92a.4.4,0,0,1,.32-.17h7.51a1.55,1.55,0,0,0,0-3.1H16.55a1.53,1.53,0,0,0-1.28.68l-3.95,5.76a1.55,1.55,0,0,0-.24,1.16,1.51,1.51,0,0,0,.65,1Z" transform="translate(-2.63 -0.46)"/><path class="cls-1" d="M29.81,10.93A4.68,4.68,0,0,0,25,10.69h0a1.94,1.94,0,1,1,0,3.88H21.79L14.4,25.66H25.58l5.52-8.28A4.64,4.64,0,0,0,29.81,10.93Z" transform="translate(-2.63 -0.46)"/><path class="cls-1" d="M25.58,26H14.4a.38.38,0,0,1-.34-.2.38.38,0,0,1,0-.4l7.39-11.08a.38.38,0,0,1,.32-.18h3.29a1.55,1.55,0,0,0,0-3.1.42.42,0,0,1-.4-.29.38.38,0,0,1,.18-.44,5.05,5.05,0,0,1,5.17.26h0a5,5,0,0,1,1.39,7l-5.51,8.27A.4.4,0,0,1,25.58,26Zm-10.46-.77H25.38l5.4-8.1a4.28,4.28,0,0,0-1.18-5.92h0a4.29,4.29,0,0,0-3.33-.61A2.33,2.33,0,0,1,25.08,15H22Z" transform="translate(-2.63 -0.46)"/><path class="cls-1" d="M38.69,22.49H33.58a4.29,4.29,0,0,1-2.76-1l-1.6-1.35a.4.4,0,0,1-.07-.52l1.63-2.44a4.64,4.64,0,0,0,.41-.8.41.41,0,0,1,.27-.23.38.38,0,0,1,.34.08l1.92,1.62h5a2.33,2.33,0,0,1,0,4.65ZM30,19.76l1.35,1.13a3.47,3.47,0,0,0,2.25.83h5.11a1.55,1.55,0,1,0,0-3.1H33.58a.38.38,0,0,1-.25-.09l-1.64-1.38a4.25,4.25,0,0,1-.27.46Z" transform="translate(-2.63 -0.46)"/><path class="cls-1" d="M23.87,41.16a3.12,3.12,0,0,1-1.79-.57h0a3.13,3.13,0,0,1-.76-4.32l3.34-4.8H14.39a2.33,2.33,0,0,1-1.93-3.62l1.62-2.41a.37.37,0,0,1,.32-.17h14A4.26,4.26,0,0,1,31.93,32l-5.51,7.85a3.09,3.09,0,0,1-2,1.28A3.29,3.29,0,0,1,23.87,41.16ZM22.53,40a2.35,2.35,0,0,0,1.74.4,2.3,2.3,0,0,0,1.51-1l5.51-7.85A3.49,3.49,0,0,0,28.43,26H14.61l-1.5,2.24a1.55,1.55,0,0,0,1.28,2.42h11a.4.4,0,0,1,.35.2.43.43,0,0,1,0,.41L22,36.72A2.33,2.33,0,0,0,22.53,40Z" transform="translate(-2.63 -0.46)"/><path class="cls-1" d="M6.72,44.67A3.07,3.07,0,0,1,4.2,39.86l6.66-9.61a.38.38,0,1,1,.63.44L4.84,40.31a2.26,2.26,0,0,0,.42,3.06,2.24,2.24,0,0,0,1.76.5,2.31,2.31,0,0,0,1.57-.95l7.35-10.51a.4.4,0,0,1,.54-.09.39.39,0,0,1,.1.54L9.22,43.36a3.08,3.08,0,0,1-2.1,1.28A2.69,2.69,0,0,1,6.72,44.67Z" transform="translate(-2.63 -0.46)"/></svg>