<svg id="Layer_1" data-name="Layer 1" xmlns="http://www.w3.org/2000/svg" viewBox="0 0 43.34 68"><defs><style>.cls-1{fill:#fff;}</style></defs><title>skiing</title><path class="cls-1" d="M18.9,65.26a1.43,1.43,0,0,1-.55.54,2,2,0,0,1-.93.2,2.24,2.24,0,0,1-1-.19,1.75,1.75,0,0,1-.66-.54,1.57,1.57,0,0,1-.29-.77h.74a1.16,1.16,0,0,0,.16.45,1.07,1.07,0,0,0,.38.35,1.16,1.16,0,0,0,.6.15,1,1,0,0,0,.7-.25.85.85,0,0,0,.25-.62.8.8,0,0,0-.18-.54,1.23,1.23,0,0,0-.42-.32c-.17-.08-.4-.16-.69-.26a6.92,6.92,0,0,1-.82-.31,1.39,1.39,0,0,1-.52-.45,1.26,1.26,0,0,1-.22-.78,1.39,1.39,0,0,1,.2-.74,1.35,1.35,0,0,1,.58-.5,2.05,2.05,0,0,1,.89-.17,1.9,1.9,0,0,1,1.26.38,1.47,1.47,0,0,1,.54,1h-.75a1,1,0,0,0-.32-.56,1,1,0,0,0-.73-.25,1,1,0,0,0-.67.22.75.75,0,0,0-.25.61.76.76,0,0,0,.16.51,1.27,1.27,0,0,0,.41.31c.16.07.39.15.67.24a6.58,6.58,0,0,1,.84.32,1.35,1.35,0,0,1,.76,1.28A1.45,1.45,0,0,1,18.9,65.26Z" transform="translate(-4.34)"/><path class="cls-1" d="M22.31,66l-1.6-1.88V66H20V60.31h.69v3.28l1.58-1.83h.84l-1.87,2.09L23.18,66Z" transform="translate(-4.34)"/><path class="cls-1" d="M23.8,60.23a.54.54,0,0,1,.68,0,.39.39,0,0,1,.13.31.37.37,0,0,1-.13.3.54.54,0,0,1-.68,0,.37.37,0,0,1-.13-.3A.39.39,0,0,1,23.8,60.23Zm.68,1.53V66h-.69V61.76Z" transform="translate(-4.34)"/><path class="cls-1" d="M25.6,60.23a.5.5,0,0,1,.35-.12.49.49,0,0,1,.34.12.39.39,0,0,1,.13.31.37.37,0,0,1-.13.3A.49.49,0,0,1,26,61a.5.5,0,0,1-.35-.12.4.4,0,0,1-.13-.3A.42.42,0,0,1,25.6,60.23Zm.69,1.53V66H25.6V61.76Z" transform="translate(-4.34)"/><path class="cls-1" d="M30.79,62.16a1.91,1.91,0,0,1,.45,1.36V66h-.7V63.58a1.3,1.3,0,0,0-.32-1,1.12,1.12,0,0,0-.87-.34,1.2,1.2,0,0,0-.91.37,1.54,1.54,0,0,0-.34,1.08V66h-.7V61.76h.7v1a1.37,1.37,0,0,1,.56-.78,1.71,1.71,0,0,1,.95-.28A1.58,1.58,0,0,1,30.79,62.16Z" transform="translate(-4.34)"/><path class="cls-1" d="M35.05,62a1.57,1.57,0,0,1,.59.82V61.76h.7V66a2.07,2.07,0,0,1-.25,1,1.76,1.76,0,0,1-.68.7,2,2,0,0,1-1,.25A2.2,2.2,0,0,1,33,67.59a1.8,1.8,0,0,1-.68-1.1H33a1.16,1.16,0,0,0,.46.66,1.47,1.47,0,0,0,.87.24,1.26,1.26,0,0,0,.93-.36,1.34,1.34,0,0,0,.37-1V64.88a1.57,1.57,0,0,1-.59.82,1.72,1.72,0,0,1-1,.3,1.83,1.83,0,0,1-1-.26,1.74,1.74,0,0,1-.68-.74,2.72,2.72,0,0,1,0-2.28A1.71,1.71,0,0,1,33,62a1.92,1.92,0,0,1,1-.26A1.72,1.72,0,0,1,35.05,62Zm-1.86.73a1.84,1.84,0,0,0,0,2.24,1.33,1.33,0,0,0,1,.41A1.37,1.37,0,0,0,35,65.2a1.21,1.21,0,0,0,.51-.54,1.69,1.69,0,0,0,.18-.8,1.79,1.79,0,0,0-.18-.81,1.33,1.33,0,0,0-.51-.54,1.46,1.46,0,0,0-.73-.18A1.33,1.33,0,0,0,33.19,62.74Z" transform="translate(-4.34)"/><path class="cls-1" d="M40.87,13.42a5,5,0,1,1,1.89-9.54,5,5,0,0,1,2.68,6.48A4.89,4.89,0,0,1,42.76,13,5,5,0,0,1,40.87,13.42Zm0-9.15a4.19,4.19,0,1,0,1.6,8.06,4.14,4.14,0,0,0,2.27-2.27h0a4.19,4.19,0,0,0-3.87-5.79Z" transform="translate(-4.34)"/><path class="cls-1" d="M34.41,40.84,9.76,30.63a.77.77,0,0,1-.42-1l.3-.71a.76.76,0,0,1,1-.41L35.28,38.72a6.55,6.55,0,0,0,5.19-.09.74.74,0,0,1,1,.3l.39.66a.76.76,0,0,1-.33,1.08A8.81,8.81,0,0,1,34.41,40.84Z" transform="translate(-4.34)"/><path class="cls-1" d="M37.76,41.88a9.21,9.21,0,0,1-3.5-.69h0L9.61,31A1.15,1.15,0,0,1,9,29.48l.29-.7a1.16,1.16,0,0,1,1.5-.62L35.43,38.37a6.13,6.13,0,0,0,4.88-.09,1.13,1.13,0,0,1,1.45.46l.39.65a1.15,1.15,0,0,1-.5,1.63A9.26,9.26,0,0,1,37.76,41.88Zm-3.2-1.4a8.4,8.4,0,0,0,6.77-.15.37.37,0,0,0,.2-.24.38.38,0,0,0,0-.31l-.39-.66a.37.37,0,0,0-.47-.15,6.94,6.94,0,0,1-5.49.11L10.49,28.86a.39.39,0,0,0-.5.21l-.29.7a.38.38,0,0,0,.2.5Z" transform="translate(-4.34)"/><path class="cls-1" d="M43.25,24.25l-6.4-2.65a3.83,3.83,0,0,1-1.93-1.77l-1.78-3.46A1.9,1.9,0,0,1,34,13.81h0a1.9,1.9,0,0,1,2.57.82l1.78,3.45,6.4,2.65Z" transform="translate(-4.34)"/><path class="cls-1" d="M43.25,24.63a.39.39,0,0,1-.15,0L36.71,22a4.24,4.24,0,0,1-2.13-2L32.8,16.55a2.29,2.29,0,0,1,4.07-2.1l1.72,3.33,6.27,2.6a.38.38,0,0,1,.2.5L43.6,24.4a.41.41,0,0,1-.2.21A.39.39,0,0,1,43.25,24.63ZM34.83,14a1.44,1.44,0,0,0-.69.17,1.52,1.52,0,0,0-.66,2l1.78,3.45A3.44,3.44,0,0,0,37,21.25l6,2.51,1.17-2.82-6.05-2.51a.35.35,0,0,1-.19-.17L36.19,14.8A1.52,1.52,0,0,0,34.83,14Z" transform="translate(-4.34)"/><path class="cls-1" d="M45.39,25.37a2.27,2.27,0,0,1-.88-.18.38.38,0,0,1-.21-.49.37.37,0,0,1,.48-.22h0a1.55,1.55,0,0,0,1.16,0,1.53,1.53,0,0,0,0-2.82l-.07,0a.38.38,0,1,1,.42-.63A2.26,2.26,0,0,1,47.5,24a2.22,2.22,0,0,1-1.24,1.24A2.19,2.19,0,0,1,45.39,25.37Z" transform="translate(-4.34)"/><path class="cls-1" d="M47.18,46.51a.4.4,0,0,1-.15,0L4.57,28.89a.38.38,0,0,1,.29-.7L47.33,45.77a.39.39,0,0,1,.2.5A.38.38,0,0,1,47.18,46.51Z" transform="translate(-4.34)"/><path class="cls-1" d="M28.54,2.29H25.49a.38.38,0,0,1-.38-.38.39.39,0,0,1,.38-.39h3.05a.39.39,0,0,1,.38.39A.38.38,0,0,1,28.54,2.29Z" transform="translate(-4.34)"/><path class="cls-1" d="M27,3.81a.38.38,0,0,1-.38-.38V.38a.38.38,0,0,1,.76,0V3.43A.38.38,0,0,1,27,3.81Z" transform="translate(-4.34)"/><path class="cls-1" d="M24.72,6.48h-3a.38.38,0,0,1,0-.76h3a.38.38,0,1,1,0,.76Z" transform="translate(-4.34)"/><path class="cls-1" d="M23.2,8a.39.39,0,0,1-.38-.39v-3a.38.38,0,0,1,.76,0V7.62A.39.39,0,0,1,23.2,8Z" transform="translate(-4.34)"/><path class="cls-1" d="M31.24,10.92l-8.73,7.25a3.47,3.47,0,0,0-1,1.29,3.36,3.36,0,0,0-.16,2H31.65l2.89-2.4-1.4-2.71a1.91,1.91,0,0,1,3.39-1.74l.91,1.76a4.18,4.18,0,0,0-6.2-5.47Z" transform="translate(-4.34)"/><path class="cls-1" d="M31.65,21.87H21.4a.38.38,0,0,1-.37-.3,3.7,3.7,0,0,1,1.24-3.69L31,10.62h0a4.57,4.57,0,0,1,6.76,6,.38.38,0,0,1-.34.17.38.38,0,0,1-.32-.2l-.91-1.77a1.5,1.5,0,0,0-.89-.75,1.47,1.47,0,0,0-1.16.1,1.52,1.52,0,0,0-.66,2l1.4,2.71a.39.39,0,0,1-.1.47l-2.89,2.4A.42.42,0,0,1,31.65,21.87Zm-9.93-.77h9.79L34.06,19,32.8,16.55a2.29,2.29,0,0,1,4.07-2.1l.57,1.11a3.77,3.77,0,0,0-.59-3.86,3.79,3.79,0,0,0-5.36-.49l-8.73,7.25a3,3,0,0,0-.84,1.15A2.81,2.81,0,0,0,21.72,21.1Z" transform="translate(-4.34)"/><path class="cls-1" d="M30.38,35.42a.36.36,0,0,1-.29-.13.38.38,0,0,1,0-.54l5.39-4.68a4.16,4.16,0,0,0,1.27-4.39A4.32,4.32,0,0,0,34.24,23l-2.67-1.1H21.92a2.94,2.94,0,0,0,1.6,1.61l8,3.3a.41.41,0,0,1,.23.28.39.39,0,0,1-.11.34l-5.88,5.87a.38.38,0,0,1-.54-.54l5.48-5.46-7.44-3.09A3.7,3.7,0,0,1,21,21.57a.37.37,0,0,1,.07-.32.38.38,0,0,1,.3-.15H31.65a.32.32,0,0,1,.14,0l2.75,1.14a5.06,5.06,0,0,1,3,3.19A4.93,4.93,0,0,1,36,30.65l-5.39,4.68A.43.43,0,0,1,30.38,35.42Z" transform="translate(-4.34)"/><path class="cls-1" d="M19.46,27.39a.4.4,0,0,1-.15,0l-.71-.29a.38.38,0,0,1,.3-.7l.7.29a.38.38,0,0,1-.14.73Z" transform="translate(-4.34)"/><path class="cls-1" d="M17.34,26.52a.32.32,0,0,1-.14,0l-7-2.92a.38.38,0,0,1-.2-.5.37.37,0,0,1,.49-.2l7,2.92a.38.38,0,0,1-.15.73Z" transform="translate(-4.34)"/><path class="cls-1" d="M5.89,19.3a.4.4,0,0,1-.15,0L5,19a.39.39,0,0,1-.21-.5.4.4,0,0,1,.5-.21l.71.3a.38.38,0,0,1-.15.73Z" transform="translate(-4.34)"/><path class="cls-1" d="M14.34,22.8a.32.32,0,0,1-.14,0l-7-2.92a.38.38,0,0,1,.29-.7l7.05,2.92a.39.39,0,0,1,.21.5A.41.41,0,0,1,14.34,22.8Z" transform="translate(-4.34)"/><line class="cls-1" x1="28.23" y1="18.59" x2="11.96" y2="11.85"/><path class="cls-1" d="M32.57,19a.4.4,0,0,1-.15,0L16.15,12.2a.38.38,0,1,1,.29-.7l16.27,6.74a.38.38,0,0,1-.14.73Z" transform="translate(-4.34)"/></svg>