<svg id="Layer_1" data-name="Layer 1" xmlns="http://www.w3.org/2000/svg" viewBox="0 0 47.61 60.41"><defs><style>.cls-1{fill:#fff;}</style></defs><title>Untitled-18</title><path class="cls-1" d="M36.43,14.35c0,.05.15,0,.08.14S36.45,14.4,36.43,14.35Z" transform="translate(-0.19 -4.4)"/><path class="cls-1" d="M.2,11.25c.47,1.53,1.91,3,4.08,4.14a33.45,33.45,0,0,0,9.57,3,54.16,54.16,0,0,0,7.61.83A54.16,54.16,0,0,0,29.1,19a50.49,50.49,0,0,0,11.23-2.18,17.66,17.66,0,0,0,5.18-2.61,9.67,9.67,0,0,0,2.24-2.51v1.19c0,14,0,28.06,0,42.09a6,6,0,0,1-3.19,5.53A28,28,0,0,1,33.87,64a63.24,63.24,0,0,1-21.61-.32,26.29,26.29,0,0,1-8.92-3.2,9.81,9.81,0,0,1-1.79-1.42A4.25,4.25,0,0,1,.19,55.86Q.21,34,.2,12.18Zm31.86,39,.08-.21-2.95-2.75c-1-1-1-.94.11-1.73,2.88-2,3.58-4.83,3.14-8.12C31.72,32,26.41,30,22,32a6.88,6.88,0,0,0-4,5.54c-.73,4.24,1.24,8.25,5.73,9.13a3.6,3.6,0,0,1,2.06,1.21c.57.63,1.13,1.28,1.7,1.91.19.21.37.46.71.46ZM6.69,44.35c0,1.76,0,1.82,1.62,2.17a9.79,9.79,0,0,0,4.63,0A4.21,4.21,0,0,0,16.39,43a4.07,4.07,0,0,0-2.21-4.41c-1-.59-2-1.11-3-1.67A1.54,1.54,0,0,1,11.87,34a5.62,5.62,0,0,1,3.4.71c.37.21.52.16.51-.29,0-.7,0-1.41,0-2.11a.55.55,0,0,0-.46-.64,9.23,9.23,0,0,0-6.05.13,4.14,4.14,0,0,0-1.34,6.89,8.69,8.69,0,0,0,2.19,1.45,9.57,9.57,0,0,1,2.05,1.2A1.44,1.44,0,0,1,11.38,44,5.94,5.94,0,0,1,8,43.42c-.45-.22-.87-.92-1.3-.59C6.49,43,6.69,43.82,6.69,44.35ZM35,39c0,2.23,0,4.47,0,6.7,0,.72.23.89.91.88,2,0,4.06,0,6.09,0s2.09,0,2-2.13c0-.52-.19-.65-.67-.65-1.36,0-2.71,0-4.07,0-.7,0-.89-.19-.88-.89,0-3,0-5.94,0-8.91,0-.79.25-1.83-.15-2.3s-1.55-.11-2.36-.21-.92.17-.9.88C35.05,34.56,35,36.76,35,39Z" transform="translate(-0.19 -4.4)"/><path class="cls-1" d="M24.67,15.72c-6,0-11.1-.47-16-2.33a7.06,7.06,0,0,1-2.95-1.86,2,2,0,0,1,0-2.92,9.3,9.3,0,0,1,4.43-2.42A46.51,46.51,0,0,1,24.26,4.4,48.53,48.53,0,0,1,36.5,5.81a16.52,16.52,0,0,1,4.57,1.81,5.45,5.45,0,0,1,.58.4c1.69,1.35,1.64,2.93-.12,4.18a17.15,17.15,0,0,1-6.39,2.43A45.85,45.85,0,0,1,24.67,15.72Z" transform="translate(-0.19 -4.4)"/><path class="cls-1" d="M28.94,39.19a5.81,5.81,0,0,1-.59,2.74,3.54,3.54,0,0,1-5.92.49,6.09,6.09,0,0,1,.3-7.13,3.46,3.46,0,0,1,5.71,1A7,7,0,0,1,28.94,39.19Z" transform="translate(-0.19 -4.4)"/></svg>