<svg id="Layer_1" data-name="Layer 1" xmlns="http://www.w3.org/2000/svg" viewBox="0 0 48 42.97"><defs><style>.cls-1{fill:#fefdfd;}</style></defs><title>swift</title><path class="cls-1" d="M44.79,36.64a18.82,18.82,0,0,1-.55,5,2,2,0,0,0,.38,1.92,16.85,16.85,0,0,1,3.27,8,9.64,9.64,0,0,1,0,3.17,2,2,0,0,1-.1.35c0,.16-.09.35-.28.38s-.25-.19-.33-.32a6.74,6.74,0,0,0-4.21-3.59,8.65,8.65,0,0,0-5.62.59c-1.08.44-2.06,1.1-3.14,1.56a21.31,21.31,0,0,1-10.55,1.52c-8.47-.89-15.3-4.88-20.89-11.18a1.59,1.59,0,0,0-.13-.13c-.82-1-1.65-2.08-2.37-3.2A1.19,1.19,0,0,1,0,40.3a4.32,4.32,0,0,1,1.23.75,30.78,30.78,0,0,0,8.71,4.07,24.06,24.06,0,0,0,9.62.86,19.15,19.15,0,0,0,7.25-2.35c.22-.13.39-.2.07-.45A92.61,92.61,0,0,1,15,32c-.91-1-1.81-2-2.71-3.06-2.5-3.12-5.15-6.13-7.44-9.42L4.61,19,4.67,19c1,.81,1.88,1.64,2.83,2.43,2.59,2.16,5.21,4.29,8,6.26,1.63,1.26,3.32,2.46,5,3.62,1,.7,2.05,1.36,3.11,2.06,0-.26-.12-.34-.22-.44-1-1.15-2.11-2.28-3.12-3.45s-2-2.48-3-3.72c-1.37-1.81-2.76-3.61-4.12-5.44a44.77,44.77,0,0,1-2.58-3.67l.08-.09c1.9,1.93,3.88,3.77,5.88,5.58,1.11,1,2.23,2,3.42,2.93,2.19,1.91,4.47,3.7,6.8,5.43a82.27,82.27,0,0,0,6.85,4.71c.31.18.38.09.48-.19a18.93,18.93,0,0,0,1.1-5.57A25.28,25.28,0,0,0,32.64,17.8c-.43-.95-1-1.82-1.48-2.74a27,27,0,0,0-1.6-2.49c.12-.13.21,0,.27,0A32.17,32.17,0,0,1,43.41,29.27a23.5,23.5,0,0,1,1.35,7.1A2.48,2.48,0,0,0,44.79,36.64Z" transform="translate(0 -12.51)"/></svg>