<svg id="Layer_1" data-name="Layer 1" xmlns="http://www.w3.org/2000/svg" viewBox="0 0 48 67.64"><defs><style>.cls-1{fill:#fff;}.cls-2{fill:none;}</style></defs><title>traveling</title><path class="cls-1" d="M9.78,60.35v.55H8.29v4.74H7.6V60.9H6.11v-.55Z" transform="translate(0 -0.01)"/><path class="cls-1" d="M11.73,61.69a1.74,1.74,0,0,1,.93-.24v.74h-.21a1.46,1.46,0,0,0-.95.3,1.21,1.21,0,0,0-.36,1v2.17h-.69V61.52h.69v.83A1.51,1.51,0,0,1,11.73,61.69Z" transform="translate(0 -0.01)"/><path class="cls-1" d="M16,61.77a1.52,1.52,0,0,1,.58.8v-1h.68v4.12h-.68v-1a1.56,1.56,0,0,1-.58.8,1.71,1.71,0,0,1-1,.3,1.85,1.85,0,0,1-1-.25,1.72,1.72,0,0,1-.67-.74,2.32,2.32,0,0,1-.25-1.12,2.34,2.34,0,0,1,.25-1.12,1.72,1.72,0,0,1,.67-.74,1.85,1.85,0,0,1,1-.25A1.71,1.71,0,0,1,16,61.77Zm-1.83.71a1.53,1.53,0,0,0-.38,1.1,1.57,1.57,0,0,0,.38,1.11,1.31,1.31,0,0,0,1,.4,1.34,1.34,0,0,0,.72-.19,1.28,1.28,0,0,0,.5-.53,1.65,1.65,0,0,0,.18-.79,1.67,1.67,0,0,0-.18-.79,1.28,1.28,0,0,0-.5-.53,1.43,1.43,0,0,0-.72-.19A1.32,1.32,0,0,0,14.21,62.48Z" transform="translate(0 -0.01)"/><path class="cls-1" d="M20,64.91l1.27-3.39H22l-1.62,4.12h-.81L18,61.52h.74Z" transform="translate(0 -0.01)"/><path class="cls-1" d="M26.42,63.72H23.13a1.43,1.43,0,0,0,.4,1.06,1.28,1.28,0,0,0,.93.35,1.34,1.34,0,0,0,.83-.25,1,1,0,0,0,.4-.67h.73a1.77,1.77,0,0,1-.33.77,1.73,1.73,0,0,1-.67.52,2.18,2.18,0,0,1-.93.19,2.09,2.09,0,0,1-1-.25,1.77,1.77,0,0,1-.72-.74,2.32,2.32,0,0,1-.26-1.12,2.34,2.34,0,0,1,.26-1.12,1.77,1.77,0,0,1,.72-.74,2.09,2.09,0,0,1,1-.25,2,2,0,0,1,1,.25,1.8,1.8,0,0,1,.69.68,2.05,2.05,0,0,1,.23,1A1.9,1.9,0,0,1,26.42,63.72Zm-.81-1.09a1,1,0,0,0-.47-.46,1.44,1.44,0,0,0-.65-.15,1.38,1.38,0,0,0-.95.35,1.41,1.41,0,0,0-.41,1h2.63A1.32,1.32,0,0,0,25.61,62.63Z" transform="translate(0 -0.01)"/><path class="cls-1" d="M28,60.09v5.55h-.69V60.09Z" transform="translate(0 -0.01)"/><path class="cls-1" d="M29.8,60.09v5.55h-.68V60.09Z" transform="translate(0 -0.01)"/><path class="cls-1" d="M30.91,60a.45.45,0,0,1,.33-.12.47.47,0,0,1,.34.12.38.38,0,0,1,.13.3.39.39,0,0,1-.13.31.51.51,0,0,1-.34.11.49.49,0,0,1-.33-.11.39.39,0,0,1-.13-.31A.38.38,0,0,1,30.91,60Zm.67,1.51v4.12H30.9V61.52Z" transform="translate(0 -0.01)"/><path class="cls-1" d="M36,61.91a1.9,1.9,0,0,1,.44,1.34v2.39h-.68V63.31a1.33,1.33,0,0,0-.32-1A1.11,1.11,0,0,0,34.6,62a1.16,1.16,0,0,0-.9.36,1.5,1.5,0,0,0-.34,1.06v2.19h-.68V61.52h.68v1a1.37,1.37,0,0,1,.56-.78,1.71,1.71,0,0,1,2.09.19Z" transform="translate(0 -0.01)"/><path class="cls-1" d="M40.2,61.77a1.52,1.52,0,0,1,.58.8v-1h.69V65.7a2.13,2.13,0,0,1-.24,1,1.8,1.8,0,0,1-.68.69,2.07,2.07,0,0,1-1,.24,2.16,2.16,0,0,1-1.36-.4,1.78,1.78,0,0,1-.67-1.08h.68a1.21,1.21,0,0,0,.45.65,1.46,1.46,0,0,0,.86.24,1.25,1.25,0,0,0,.92-.36,1.35,1.35,0,0,0,.36-1V64.59a1.56,1.56,0,0,1-.58.8,1.66,1.66,0,0,1-1,.3,1.88,1.88,0,0,1-1-.25,1.79,1.79,0,0,1-.67-.74,2.44,2.44,0,0,1-.24-1.12,2.46,2.46,0,0,1,.24-1.12,1.79,1.79,0,0,1,.67-.74,1.88,1.88,0,0,1,1-.25A1.66,1.66,0,0,1,40.2,61.77Zm-1.83.71a1.53,1.53,0,0,0-.38,1.1,1.57,1.57,0,0,0,.38,1.11,1.31,1.31,0,0,0,1,.4,1.4,1.4,0,0,0,.73-.19,1.26,1.26,0,0,0,.49-.53,1.65,1.65,0,0,0,.18-.79,1.67,1.67,0,0,0-.18-.79,1.26,1.26,0,0,0-.49-.53,1.5,1.5,0,0,0-.73-.19A1.32,1.32,0,0,0,38.37,62.48Z" transform="translate(0 -0.01)"/><path class="cls-1" d="M47.62,28.51h-.74a.38.38,0,1,1,0-.75h.74a.38.38,0,1,1,0,.75Z" transform="translate(0 -0.01)"/><path class="cls-1" d="M45.38,28.51H39.75a.38.38,0,0,1,0-.75h5.63a.38.38,0,0,1,0,.75Z" transform="translate(0 -0.01)"/><path class="cls-1" d="M1.12,28.51H.38a.38.38,0,1,1,0-.75h.74a.38.38,0,1,1,0,.75Z" transform="translate(0 -0.01)"/><path class="cls-1" d="M8.25,28.51H2.62a.38.38,0,0,1,0-.75H8.25a.38.38,0,0,1,0,.75Z" transform="translate(0 -0.01)"/><path class="cls-1" d="M12.38,9h-3a.38.38,0,1,1,0-.75h3a.38.38,0,0,1,0,.75Z" transform="translate(0 -0.01)"/><path class="cls-1" d="M10.88,10.51a.38.38,0,0,1-.38-.37v-3a.38.38,0,1,1,.75,0v3A.38.38,0,0,1,10.88,10.51Z" transform="translate(0 -0.01)"/><path class="cls-1" d="M8.25,13.14h-3a.38.38,0,0,1,0-.75h3a.38.38,0,0,1,0,.75Z" transform="translate(0 -0.01)"/><path class="cls-1" d="M6.75,14.64h0a.38.38,0,0,1-.38-.38v-3a.37.37,0,0,1,.37-.37h0a.37.37,0,0,1,.37.37v3A.37.37,0,0,1,6.75,14.64Z" transform="translate(0 -0.01)"/><path class="cls-1" d="M33.75,44.26H14.25a4.13,4.13,0,0,1-4.12-4.12V17.64a4.13,4.13,0,0,1,4.12-4.13h19.5a4.14,4.14,0,0,1,4.13,4.13v22.5A4.14,4.14,0,0,1,33.75,44.26Zm-19.5-30a3.38,3.38,0,0,0-3.37,3.38v22.5a3.37,3.37,0,0,0,3.37,3.37h19.5a3.37,3.37,0,0,0,3.37-3.37V17.64a3.38,3.38,0,0,0-3.37-3.38Z" transform="translate(0 -0.01)"/><path class="cls-2" d="M16.12,12.39V6A5.63,5.63,0,0,1,21.75.39h4.5A5.62,5.62,0,0,1,31.87,6v6.38m-2.25,0v-6a3.74,3.74,0,0,0-3.75-3.75H22.12a3.75,3.75,0,0,0-3.75,3.75v6" transform="translate(0 -0.01)"/><path class="cls-1" d="M31.88,12.76a.37.37,0,0,1-.38-.37V6A5.26,5.26,0,0,0,26.25.76h-4.5A5.26,5.26,0,0,0,16.5,6v6.38a.38.38,0,0,1-.75,0V6a6,6,0,0,1,6-6h4.5a6,6,0,0,1,6,6v6.38A.37.37,0,0,1,31.88,12.76Zm-2.26,0a.38.38,0,0,1-.37-.37v-6A3.38,3.38,0,0,0,25.88,3H22.13a3.38,3.38,0,0,0-3.38,3.38v6a.38.38,0,0,1-.75,0v-6a4.13,4.13,0,0,1,4.13-4.13h3.75A4.13,4.13,0,0,1,30,6.39v6A.38.38,0,0,1,29.62,12.76Z" transform="translate(0 -0.01)"/><path class="cls-2" d="M21.5,23.63h5a5,5,0,0,1,5,5V43.88a0,0,0,0,1,0,0h-15a0,0,0,0,1,0,0V28.63A5,5,0,0,1,21.5,23.63Z"/><path class="cls-1" d="M31.5,44.26h-15a.38.38,0,0,1-.38-.37V27.39a4.14,4.14,0,0,1,4.13-4.13h7.5a4.13,4.13,0,0,1,4.12,4.13v16.5A.37.37,0,0,1,31.5,44.26Zm-14.63-.75H31.12V27.39A3.38,3.38,0,0,0,27.75,24h-7.5a3.39,3.39,0,0,0-3.38,3.38Z" transform="translate(0 -0.01)"/><path class="cls-1" d="M31.5,28.51h-15a.38.38,0,1,1,0-.75h15a.38.38,0,0,1,0,.75Z" transform="translate(0 -0.01)"/><path class="cls-1" d="M25.12,33H22.88a1.12,1.12,0,0,1-1.13-1.12v-.75A1.13,1.13,0,0,1,22.88,30h2.24a1.13,1.13,0,0,1,1.13,1.13v.75A1.12,1.12,0,0,1,25.12,33Zm-2.24-2.25a.38.38,0,0,0-.38.38v.75a.38.38,0,0,0,.38.37h2.24a.38.38,0,0,0,.38-.37v-.75a.38.38,0,0,0-.38-.38Z" transform="translate(0 -0.01)"/><path class="cls-1" d="M16.5,47.26a1.88,1.88,0,0,1-1.88-1.87A.38.38,0,0,1,15,45a.37.37,0,0,1,.37.38,1.13,1.13,0,0,0,2.25,0A.38.38,0,0,1,18,45a.37.37,0,0,1,.37.38A1.87,1.87,0,0,1,16.5,47.26Z" transform="translate(0 -0.01)"/><path class="cls-1" d="M31.5,47.26a1.88,1.88,0,0,1-1.88-1.87A.38.38,0,0,1,30,45a.37.37,0,0,1,.37.38,1.13,1.13,0,0,0,2.25,0A.38.38,0,0,1,33,45a.37.37,0,0,1,.37.38A1.87,1.87,0,0,1,31.5,47.26Z" transform="translate(0 -0.01)"/><path class="cls-1" d="M35.25,22.51a.37.37,0,0,1-.37-.37V18a1.5,1.5,0,0,0-1.49-1.5H29.25a.38.38,0,0,1,0-.75h4.13A2.25,2.25,0,0,1,35.62,18v4.13A.37.37,0,0,1,35.25,22.51Z" transform="translate(0 -0.01)"/></svg>