<svg id="Layer_1" data-name="Layer 1" xmlns="http://www.w3.org/2000/svg" viewBox="0 0 47.89 67.82"><defs><style>.cls-1{fill:#fff;}</style></defs><title>trekking</title><path class="cls-1" d="M12.5,60.48V61H11v4.76h-.68V61H8.81v-.55Z" transform="translate(-0.11)"/><path class="cls-1" d="M14.46,61.82a1.78,1.78,0,0,1,.94-.24v.75h-.21a1.44,1.44,0,0,0-.95.3,1.18,1.18,0,0,0-.37,1v2.18h-.69V61.65h.69v.84A1.48,1.48,0,0,1,14.46,61.82Z" transform="translate(-0.11)"/><path class="cls-1" d="M19.86,63.87H16.54A1.43,1.43,0,0,0,17,64.93a1.29,1.29,0,0,0,.93.36,1.33,1.33,0,0,0,.83-.26,1,1,0,0,0,.41-.67h.74a1.91,1.91,0,0,1-.34.77,1.81,1.81,0,0,1-.68.53,2.27,2.27,0,0,1-.93.18,2.16,2.16,0,0,1-1.06-.25,1.9,1.9,0,0,1-.72-.74,2.34,2.34,0,0,1-.26-1.12,2.43,2.43,0,0,1,.26-1.14,1.87,1.87,0,0,1,.72-.73,2.06,2.06,0,0,1,1.06-.26,2,2,0,0,1,1.05.26,1.8,1.8,0,0,1,.69.68,1.94,1.94,0,0,1,.24,1A2.09,2.09,0,0,1,19.86,63.87ZM19,62.77a1.1,1.1,0,0,0-.47-.46,1.49,1.49,0,0,0-.66-.15,1.33,1.33,0,0,0-.95.35,1.38,1.38,0,0,0-.42,1h2.65A1.32,1.32,0,0,0,19,62.77Z" transform="translate(-0.11)"/><path class="cls-1" d="M23.05,65.79l-1.58-1.86v1.86h-.69V60.21h.69v3.24L23,61.65h.84L22,63.71l1.9,2.08Z" transform="translate(-0.11)"/><path class="cls-1" d="M26.79,65.79,25.2,63.93v1.86h-.68V60.21h.68v3.24l1.56-1.8h.84l-1.86,2.06,1.91,2.08Z" transform="translate(-0.11)"/><path class="cls-1" d="M28.26,60.13A.47.47,0,0,1,28.6,60a.48.48,0,0,1,.34.11.41.41,0,0,1,.12.31.39.39,0,0,1-.12.3.49.49,0,0,1-.34.12.47.47,0,0,1-.34-.12.37.37,0,0,1-.13-.3A.39.39,0,0,1,28.26,60.13Zm.68,1.52v4.14h-.69V61.65Z" transform="translate(-0.11)"/><path class="cls-1" d="M33.38,62.05a1.84,1.84,0,0,1,.45,1.34v2.4h-.69V63.45a1.31,1.31,0,0,0-.31-1,1.14,1.14,0,0,0-.86-.34,1.2,1.2,0,0,0-.91.37,1.54,1.54,0,0,0-.34,1.07v2.19H30V61.65h.68v1a1.48,1.48,0,0,1,.56-.77,1.58,1.58,0,0,1,.94-.28A1.52,1.52,0,0,1,33.38,62.05Z" transform="translate(-0.11)"/><path class="cls-1" d="M37.6,61.9a1.56,1.56,0,0,1,.59.81V61.65h.68v4.21a2.13,2.13,0,0,1-.24,1,1.67,1.67,0,0,1-.68.69,2,2,0,0,1-1,.25,2.19,2.19,0,0,1-1.37-.4,1.83,1.83,0,0,1-.67-1.09h.68A1.17,1.17,0,0,0,36,67a1.43,1.43,0,0,0,.86.24,1.25,1.25,0,0,0,.92-.36,1.31,1.31,0,0,0,.37-1V64.74a1.58,1.58,0,0,1-.59.8,1.71,1.71,0,0,1-1,.3,1.88,1.88,0,0,1-1-.25,1.79,1.79,0,0,1-.67-.74,2.34,2.34,0,0,1-.25-1.12,2.43,2.43,0,0,1,.25-1.14,1.76,1.76,0,0,1,.67-.73,1.8,1.8,0,0,1,1-.26A1.71,1.71,0,0,1,37.6,61.9Zm-1.84.71a1.83,1.83,0,0,0,0,2.23,1.35,1.35,0,0,0,1,.4,1.4,1.4,0,0,0,.73-.19,1.28,1.28,0,0,0,.5-.53,1.85,1.85,0,0,0,0-1.59,1.37,1.37,0,0,0-.5-.54,1.49,1.49,0,0,0-.73-.18A1.35,1.35,0,0,0,35.76,62.61Z" transform="translate(-0.11)"/><path class="cls-1" d="M12.88,47.12H.49a.38.38,0,0,1-.38-.38.37.37,0,0,1,.38-.37H12.88a3.37,3.37,0,0,0,2.4-1l3.45-3.45a4.11,4.11,0,0,1,2.93-1.21H35a4.14,4.14,0,0,1,2.53.86l2.87,2.21a3.42,3.42,0,0,0,2.07.7h5.12a.38.38,0,0,1,.38.38.37.37,0,0,1-.38.37H42.5A4.14,4.14,0,0,1,40,44.37l-2.87-2.2A3.39,3.39,0,0,0,35,41.46H21.66a3.37,3.37,0,0,0-2.4,1L15.81,45.9A4.08,4.08,0,0,1,12.88,47.12Z" transform="translate(-0.11)"/><path class="cls-1" d="M42.57,12.83h0l-3,0a1.88,1.88,0,0,1-1.88-1.89,1.9,1.9,0,0,1,1.55-1.85,1.88,1.88,0,0,1,.52-1,1.9,1.9,0,0,1,1.33-.55h0a1.85,1.85,0,0,1,1.33.56,1.91,1.91,0,0,1,.52,1,1.82,1.82,0,0,1,1,.53,1.87,1.87,0,0,1,0,2.66A1.88,1.88,0,0,1,42.57,12.83Zm-3-3a1.13,1.13,0,0,0-1.13,1.12,1.07,1.07,0,0,0,.32.8,1.12,1.12,0,0,0,.8.34h3a1.13,1.13,0,0,0,.8-.32,1.15,1.15,0,0,0,.33-.8,1.07,1.07,0,0,0-.32-.8,1.12,1.12,0,0,0-.8-.34.38.38,0,0,1-.38-.38A1.11,1.11,0,0,0,41.08,8.3a1,1,0,0,0-.8.32,1.12,1.12,0,0,0-.34.8.38.38,0,0,1-.38.38Z" transform="translate(-0.11)"/><path class="cls-1" d="M24.62,5.28h-.75a.38.38,0,0,1,0-.76h.75a.38.38,0,1,1,0,.76Z" transform="translate(-0.11)"/><path class="cls-1" d="M33.67,5.28H26.13a.38.38,0,0,1,0-.76h7.54a.38.38,0,0,1,0,.76Z" transform="translate(-0.11)"/><path class="cls-1" d="M40.08,3h-.75a.38.38,0,0,1,0-.76h.75a.38.38,0,0,1,0,.76Z" transform="translate(-0.11)"/><path class="cls-1" d="M37.82,3H30.28a.38.38,0,1,1,0-.76h7.54a.38.38,0,0,1,0,.76Z" transform="translate(-0.11)"/><rect class="cls-1" x="5.33" y="12.07" width="11.31" height="12.82" rx="2.5"/><path class="cls-1" d="M14.87,25.26H7.33A2.26,2.26,0,0,1,5.07,23V14a2.26,2.26,0,0,1,2.26-2.26h7.54A2.26,2.26,0,0,1,17.13,14V23A2.26,2.26,0,0,1,14.87,25.26ZM7.33,12.44A1.52,1.52,0,0,0,5.82,14V23a1.52,1.52,0,0,0,1.51,1.51h7.54A1.52,1.52,0,0,0,16.38,23V14a1.52,1.52,0,0,0-1.51-1.51Z" transform="translate(-0.11)"/><rect class="cls-1" x="4.58" y="7.54" width="12.82" height="4.52" rx="1"/><path class="cls-1" d="M16.76,12.44H5.44a1.13,1.13,0,0,1-1.13-1.13v-3A1.14,1.14,0,0,1,5.44,7.16H16.76A1.14,1.14,0,0,1,17.89,8.3v3A1.13,1.13,0,0,1,16.76,12.44ZM5.44,7.92a.38.38,0,0,0-.37.38v3a.38.38,0,0,0,.37.38H16.76a.38.38,0,0,0,.37-.38v-3a.38.38,0,0,0-.37-.38Z" transform="translate(-0.11)"/><path class="cls-1" d="M18.29,7a.35.35,0,0,1-.14,0A.37.37,0,0,1,18,6.5a4.15,4.15,0,1,0-8-1.6,4.19,4.19,0,0,0,.14,1,.38.38,0,0,1-.28.46.37.37,0,0,1-.45-.27A4.78,4.78,0,0,1,9.22,4.9a4.9,4.9,0,1,1,9.42,1.89A.38.38,0,0,1,18.29,7Z" transform="translate(-0.11)"/><path class="cls-1" d="M14.12,42.59h-6a.37.37,0,0,1-.37-.37V26.4a.38.38,0,1,1,.75,0V41.84h5.28v-14a.38.38,0,0,1,.38-.38h6a.38.38,0,0,1,.38.38v7.92h4.52V27.13a3.39,3.39,0,0,0-3.39-3.39h-3.4a.38.38,0,0,1,0-.75h3.4a4.15,4.15,0,0,1,4.15,4.14v9.05a.38.38,0,0,1-.38.38H20.15a.38.38,0,0,1-.38-.38V28.27H14.49v14A.36.36,0,0,1,14.12,42.59Z" transform="translate(-0.11)"/><path class="cls-1" d="M20.15,23.76h0a.38.38,0,0,1-.38-.38V14.76a.39.39,0,0,1,.24-.35.37.37,0,0,1,.41.09l2.81,2.81a3.36,3.36,0,0,0,2.4,1h5.63v-3H26.41a2.25,2.25,0,0,1-1.6-.66l-4.37-4.37a1.55,1.55,0,0,0-1.07-.45H19a.38.38,0,1,1,0-.75h.35a2.29,2.29,0,0,1,1.6.66l4.37,4.38a1.54,1.54,0,0,0,1.07.44h5.23a.38.38,0,0,1,.37.38v3.77a.38.38,0,0,1-.37.38h-6a4.12,4.12,0,0,1-2.93-1.22l-2.17-2.17v7.71A.38.38,0,0,1,20.15,23.76Z" transform="translate(-0.11)"/><path class="cls-1" d="M28.45,40a.37.37,0,0,1-.38-.37V38.07a1.52,1.52,0,0,0-1.51-1.51h-6v3a.38.38,0,0,1-.76,0v-3.4a.38.38,0,0,1,.38-.37h6.41a2.26,2.26,0,0,1,2.26,2.26v1.51A.37.37,0,0,1,28.45,40Z" transform="translate(-0.11)"/><path class="cls-1" d="M8.08,45.61a.38.38,0,0,1-.37-.38v-3a.38.38,0,0,1,.37-.38h6.41a2.26,2.26,0,0,1,1.85,1,.38.38,0,1,1-.62.44,1.49,1.49,0,0,0-1.23-.65h-6v2.64A.38.38,0,0,1,8.08,45.61Z" transform="translate(-0.11)"/><path class="cls-1" d="M33.15,19.06a.4.4,0,0,1-.38-.35.36.36,0,0,1,.32-.4h.06a1.5,1.5,0,0,0,1.06-.44,1.46,1.46,0,0,0,.44-1.07,1.5,1.5,0,0,0-1.5-1.5.4.4,0,0,1-.35-.43.35.35,0,0,1,.39-.33h0a2.26,2.26,0,0,1,2.22,2.26,2.29,2.29,0,0,1-2.26,2.27Z" transform="translate(-0.11)"/><path class="cls-1" d="M34.28,40a.37.37,0,0,1-.38-.37V20.19a.38.38,0,1,1,.75,0V39.58A.37.37,0,0,1,34.28,40Z" transform="translate(-0.11)"/><rect class="cls-1" x="5.33" y="12.07" width="11.31" height="6.79" rx="1.89"/><path class="cls-1" d="M14.87,19.23H7.33A2.26,2.26,0,0,1,5.07,17V14a2.26,2.26,0,0,1,2.26-2.26h7.54A2.26,2.26,0,0,1,17.13,14v3A2.26,2.26,0,0,1,14.87,19.23ZM7.33,12.44A1.52,1.52,0,0,0,5.82,14v3a1.52,1.52,0,0,0,1.51,1.51h7.54A1.52,1.52,0,0,0,16.38,17V14a1.52,1.52,0,0,0-1.51-1.51Z" transform="translate(-0.11)"/><path class="cls-1" d="M13,15.84H9.22a.38.38,0,0,1,0-.76H13a.38.38,0,0,1,0,.76Z" transform="translate(-0.11)"/><path class="cls-1" d="M8.46,22.25a.4.4,0,0,1-.27-.11l-.75-.76a.36.36,0,0,1-.11-.26V18.85a.38.38,0,0,1,.38-.37H9.22a.38.38,0,0,1,.37.37v2.27a.36.36,0,0,1-.11.26l-.75.76A.4.4,0,0,1,8.46,22.25ZM8.08,21l.38.38L8.84,21V19.23H8.08Zm1.14.16Z" transform="translate(-0.11)"/><path class="cls-1" d="M13.74,22.25a.4.4,0,0,1-.27-.11l-.75-.76a.36.36,0,0,1-.11-.26V18.85a.38.38,0,0,1,.38-.37h1.5a.38.38,0,0,1,.38.37v2.27a.36.36,0,0,1-.11.26l-.75.76A.4.4,0,0,1,13.74,22.25ZM13.36,21l.38.38.38-.38V19.23h-.76Zm1.13.16h0Z" transform="translate(-0.11)"/><path class="cls-1" d="M16,9.8H6.2a.37.37,0,0,1-.38-.37.38.38,0,0,1,.38-.38H16a.38.38,0,0,1,.38.38A.37.37,0,0,1,16,9.8Z" transform="translate(-0.11)"/><path class="cls-1" d="M32.77,40a.37.37,0,0,1-.38-.37V20.19a.38.38,0,0,1,.38-.38.37.37,0,0,1,.37.38V39.58A.36.36,0,0,1,32.77,40Z" transform="translate(-0.11)"/></svg>