<svg id="Layer_1" data-name="Layer 1" xmlns="http://www.w3.org/2000/svg" viewBox="0 0 421.99 104.82"><defs><style>.cls-1{fill:#fff;}</style></defs><title>devating-landing-logo</title><path class="cls-1" d="M57.91,22.2V91.5H44V85.71q-5.41,6.54-15.69,6.53a26.06,26.06,0,0,1-12.84-3.17,22.79,22.79,0,0,1-9-9.06A27.61,27.61,0,0,1,3.17,66.37,27.6,27.6,0,0,1,6.44,52.74a22.73,22.73,0,0,1,9-9.06A26.06,26.06,0,0,1,28.3,40.5q9.61,0,15,6.07V22.2ZM40,76.51q3.64-3.78,3.65-10.14T40,56.24a12.18,12.18,0,0,0-9.15-3.78,12.29,12.29,0,0,0-9.25,3.78Q17.94,60,17.93,66.37t3.64,10.14a12.29,12.29,0,0,0,9.25,3.78A12.18,12.18,0,0,0,40,76.51Z" transform="translate(-3.17 -22.2)"/><path class="cls-1" d="M120.29,70.48h-38a11.81,11.81,0,0,0,4.86,7.38,16,16,0,0,0,9.52,2.71,19.23,19.23,0,0,0,7-1.17,16.9,16.9,0,0,0,5.65-3.69L117,84.12q-7.09,8.13-20.73,8.12a32.81,32.81,0,0,1-15-3.31,24.26,24.26,0,0,1-10.08-9.2,25.3,25.3,0,0,1-3.55-13.36,25.76,25.76,0,0,1,3.5-13.31,24.57,24.57,0,0,1,9.62-9.24,29.75,29.75,0,0,1,27-.14,23.2,23.2,0,0,1,9.38,9.1,27.11,27.11,0,0,1,3.41,13.78C120.57,66.75,120.48,68.05,120.29,70.48ZM86.2,54.33A11.92,11.92,0,0,0,82.09,62h24.75a12,12,0,0,0-4.11-7.61,12.27,12.27,0,0,0-8.21-2.85A12.56,12.56,0,0,0,86.2,54.33Z" transform="translate(-3.17 -22.2)"/><path class="cls-1" d="M179.23,41.25,158,91.5H143L121.88,41.25h15l13.91,34.18,14.39-34.18Z" transform="translate(-3.17 -22.2)"/><path class="cls-1" d="M212.5,94.15H182.14l-5.79,14h-15.5L190,42.78h14.94l29.24,65.38H218.29Zm-4.77-11.49-10.36-25L187,82.66Z" transform="translate(-3.17 -22.2)"/><path class="cls-1" d="M271.9,105.73a14.93,14.93,0,0,1-5.28,2.38,26.6,26.6,0,0,1-6.58.79q-9,0-13.87-4.57t-4.91-13.45V70.24h-7.75V59h7.75V46.79h14.57V59h12.52V70.24H255.83V90.69a6.84,6.84,0,0,0,1.64,4.9,6,6,0,0,0,4.62,1.73A9.34,9.34,0,0,0,268,95.45Z" transform="translate(-3.17 -22.2)"/><path class="cls-1" d="M280.86,48.57a7.91,7.91,0,0,1,0-11.58,9.25,9.25,0,0,1,6.54-2.34,9.49,9.49,0,0,1,6.54,2.24,7.21,7.21,0,0,1,2.52,5.61,7.93,7.93,0,0,1-2.52,6,9.12,9.12,0,0,1-6.54,2.38A9.28,9.28,0,0,1,280.86,48.57Zm-.74,9.34h14.57v50.25H280.12Z" transform="translate(-3.17 -22.2)"/><path class="cls-1" d="M353.85,62.76q5.75,5.61,5.75,16.63v28.77H345V81.63c0-4-.87-7-2.62-8.92s-4.26-2.94-7.56-2.94a11.6,11.6,0,0,0-8.78,3.41q-3.27,3.41-3.27,10.13v24.85H308.23V57.91h13.92v5.88a19.32,19.32,0,0,1,7.19-4.9,25,25,0,0,1,9.43-1.73Q348.12,57.16,353.85,62.76Z" transform="translate(-3.17 -22.2)"/><path class="cls-1" d="M425.16,57.91V99.75q0,13.81-7.19,20.55T397,127a52.73,52.73,0,0,1-13.83-1.77,30.3,30.3,0,0,1-10.83-5.14l5.79-10.46a23.94,23.94,0,0,0,8,4.16,32.21,32.21,0,0,0,9.71,1.54q7.57,0,11.17-3.41c2.39-2.28,3.59-5.71,3.59-10.32V99.47q-5.7,6.25-15.88,6.26a26.59,26.59,0,0,1-12.65-3A23.11,23.11,0,0,1,373,94.15a23.94,23.94,0,0,1-3.36-12.71A23.93,23.93,0,0,1,373,68.74a23.11,23.11,0,0,1,9.11-8.54,26.59,26.59,0,0,1,12.65-3q10.94,0,16.63,7.19V57.91ZM407.09,90.36a11.56,11.56,0,0,0,3.69-8.92,11.59,11.59,0,0,0-3.69-8.92,13.43,13.43,0,0,0-9.48-3.4,13.6,13.6,0,0,0-9.53,3.4,11.52,11.52,0,0,0-3.73,8.92,11.49,11.49,0,0,0,3.73,8.92,13.56,13.56,0,0,0,9.53,3.41A13.39,13.39,0,0,0,407.09,90.36Z" transform="translate(-3.17 -22.2)"/></svg>