<svg id="_01-Smile" height="512" viewBox="0 0 64 64" width="512" xmlns="http://www.w3.org/2000/svg" data-name="01-Smile"><path d="m11.1 25.99-.1.01h.101z" fill="#ffbeaa"/><path d="m50 18v10a2.006 2.006 0 0 0 -2-2h-1l-.1-.01a18.942 18.942 0 0 0 .1-1.99c-2.91-.97-7.69-9.45-7.99-9.97l1.99 6.97c-13 0-14-9-14-9s-4 11-10 11v1a18.942 18.942 0 0 0 .1 1.99l-.1.01h-1a2.006 2.006 0 0 0 -2 2v-10c0-9.39 8.06-17 18-17a18.483 18.483 0 0 1 12.73 4.98 16.509 16.509 0 0 1 5.27 12.02z" fill="#a65d4e"/><path d="m37.26 49.5 11.23 4.49a4.015 4.015 0 0 1 2.51 3.72v3.29a18.874 18.874 0 0 1 -8.47 2h-21.06a18.874 18.874 0 0 1 -8.47-2v-3.29a4.015 4.015 0 0 1 2.51-3.72l11.23-4.49a2.013 2.013 0 0 0 1.23-1.51l.03.01c0 1.66 1.6 3 4 3s4-1.34 4-3l.03-.01a2.013 2.013 0 0 0 1.23 1.51z" fill="#019af8"/><path d="m48 26a2.006 2.006 0 0 1 2 2v1c0 2.76-2.24 6-5 6h-1l-.03-.02a22.28 22.28 0 0 0 2.93-8.99l.1.01z" fill="#faa68e"/><path d="m36 47.65a1.87 1.87 0 0 0 .03.34l-.03.01c0 1.66-1.6 3-4 3s-4-1.34-4-3l-.03-.01a1.87 1.87 0 0 0 .03-.34v-5.42a10.775 10.775 0 0 0 8 0z" fill="#ffcdbe"/><path d="m19 35c-2.76 0-5-3.24-5-6v-1a2.006 2.006 0 0 1 2-2h1l.1-.01a22.28 22.28 0 0 0 2.93 8.99l-.03.02z" fill="#faa68e"/><path d="m27 12s1 9 14 9l-1.99-6.97c.3.52 5.08 9 7.99 9.97a18.942 18.942 0 0 1 -.1 1.99 22.28 22.28 0 0 1 -2.93 8.99 16.493 16.493 0 0 1 -7.97 7.25 10.775 10.775 0 0 1 -8 0 16.493 16.493 0 0 1 -7.97-7.25 22.28 22.28 0 0 1 -2.93-8.99 18.942 18.942 0 0 1 -.1-1.99v-1c6 0 10-11 10-11z" fill="#ffcdbe"/><path d="m48 26h-1a2.006 2.006 0 0 1 2 2v1c0 2.76-2.24 6-5 6h1c2.76 0 5-3.24 5-6v-1a2.006 2.006 0 0 0 -2-2z" fill="#ffdecf"/><path d="m15 29v-1a2.006 2.006 0 0 1 2-2h-1a2.006 2.006 0 0 0 -2 2v1c0 2.76 2.24 6 5 6h1c-2.76 0-5-3.24-5-6z" fill="#ffdecf"/><g fill="#faa68e"><path d="m47 24c-2.91-.97-7.69-9.45-7.99-9.97l1.631 5.714c1.663 2.635 4.244 6.319 6.144 7.155.043-.3.085-.605.115-.909a18.942 18.942 0 0 0 .1-1.99z"/><path d="m27 15s1 9 14 9l-.862-3.019c-12.176-.391-13.138-8.981-13.138-8.981s-4 11-10 11v1a18.942 18.942 0 0 0 .1 1.99c5.944-.118 9.9-10.99 9.9-10.99z"/><path d="m31 49v-2a2 2 0 0 1 2-2h3v-2.77a10.775 10.775 0 0 1 -8 0v5.42a1.87 1.87 0 0 1 -.03.34l.03.01c0 1.66 1.6 3 4 3a5.931 5.931 0 0 0 .593-.042 2 2 0 0 1 -1.593-1.958z"/></g><path d="m28.521 51.95a5.643 5.643 0 0 0 3.479 1.05 5.643 5.643 0 0 0 3.479-1.05 3.825 3.825 0 0 0 1.464-2.627 2.006 2.006 0 0 1 -.913-1.333l-.03.01c0 1.66-1.6 3-4 3s-4-1.34-4-3l-.03-.01a2.006 2.006 0 0 1 -.913 1.333 3.825 3.825 0 0 0 1.464 2.627z" fill="#2ae9fc"/><path d="m48.545 59.864a4.59 4.59 0 0 1 -1.107.136h-23.138a4.3 4.3 0 0 1 -4.3-4.3v-3.5l-4.49 1.8a4.015 4.015 0 0 0 -2.51 3.71v3.29a18.874 18.874 0 0 0 8.47 2h21.06a18.874 18.874 0 0 0 8.47-2v-2.718a4.551 4.551 0 0 1 -2.455 1.582z" fill="#556fde"/><path d="m28.407 8.805a21.423 21.423 0 0 0 3.393 2.195h.2c7 0 11.679-1.256 14.322-3.265a17.5 17.5 0 0 0 -1.592-1.755c-.115-.109-.244-.205-.363-.311-2.767 2.031-6.548 3.331-12.367 3.331a32.386 32.386 0 0 1 -3.593-.195z" fill="#c38778"/><path d="m28.407 8.805a32.386 32.386 0 0 0 3.593.195c5.819 0 9.6-1.3 12.367-3.331a18.485 18.485 0 0 0 -12.367-4.669 18.769 18.769 0 0 0 -7.8 1.7 11.191 11.191 0 0 0 4.207 6.105z" fill="#b46e5a"/><path d="m31.8 11a39.653 39.653 0 0 0 17.9 4 16.465 16.465 0 0 0 -3.38-7.261c-2.641 2.005-7.32 3.261-14.32 3.261-.07 0-.134 0-.2 0z" fill="#b46e5a"/><path d="m28.407 8.805a17.641 17.641 0 0 1 -8.774-3.136 17.337 17.337 0 0 0 -1.956 2.065c2.616 1.99 7.235 3.238 14.123 3.266a21.423 21.423 0 0 1 -3.393-2.195z" fill="#b46e5a"/><path d="m14 25v3a2.006 2.006 0 0 1 2-2h1l.1-.01a18.942 18.942 0 0 1 -.1-1.99v-1h-1a2 2 0 0 0 -2 2z" fill="#784132"/><path d="m48 24h-1a18.942 18.942 0 0 1 -.1 1.99l.1.01h1a2.006 2.006 0 0 1 2 2v-2a2 2 0 0 0 -2-2z" fill="#784132"/><path d="m27 35h10s-1 4-5 4-5-4-5-4z" fill="#ff808c"/><path d="m31.162 26.236-1.133 4.853a1.146 1.146 0 0 0 -.029.255 2.035 2.035 0 0 0 1.886 2.156h.228a2.035 2.035 0 0 0 1.886-2.156 1.146 1.146 0 0 0 -.029-.255l-1.133-4.853a.9.9 0 0 0 -.838-.736.9.9 0 0 0 -.838.736z" fill="#ffb4a3"/><ellipse cx="32" cy="37.5" fill="#f25a6b" rx="3.57" ry="1.5"/><path d="m29 36h6a1.994 1.994 0 0 0 1.723-1h-9.446a1.994 1.994 0 0 0 1.723 1z" fill="#f5f5fc"/><path d="m35 21.333s0-1.333 4.441-1.333c2.338 0 3.2.554 3.49 1.079.244.438-.192.921-.825.921h-3.553s-3.553 0-3.553-.667z" fill="#784132"/><path d="m29 21.333s0-1.333-4.441-1.333c-2.338 0-3.2.554-3.49 1.079-.244.438.192.921.825.921h3.553s3.553 0 3.553-.667z" fill="#784132"/><path d="m39 23a4.722 4.722 0 0 0 -3.427 1.268 1.956 1.956 0 0 0 -.573 1.4v2.332a2 2 0 0 0 2 2h4a2 2 0 0 0 1.965-1.649c-.132-1.551-.777-5.351-3.965-5.351z" fill="#f5f5fc"/><path d="m42.965 28.351c-.132-1.551-.777-5.351-3.965-5.351a4.722 4.722 0 0 0 -3.427 1.268 1.956 1.956 0 0 0 -.573 1.4v.237a4.892 4.892 0 0 1 3-.905c2.845 0 3.664 3.026 3.9 4.778a2 2 0 0 0 1.065-1.427z" fill="#e1e1f0"/><ellipse cx="38" cy="27" fill="#9b7d7b" rx="2" ry="3"/><path d="m43 29.5a.5.5 0 0 1 -.5-.5c0-.055-.048-5.5-3.5-5.5a3.841 3.841 0 0 0 -3.554 1.727.5.5 0 0 1 -.893-.451 4.8 4.8 0 0 1 4.447-2.276c3.56 0 4.5 4.252 4.5 6.5a.5.5 0 0 1 -.5.5z" fill="#784132"/><ellipse cx="37.5" cy="27" fill="#3d221a" rx="1.5" ry="2"/><path d="m37.5 28a1.652 1.652 0 0 1 -1.447-1.5 2.623 2.623 0 0 0 -.053.5c0 1.105.672 2 1.5 2s1.5-.895 1.5-2a2.623 2.623 0 0 0 -.053-.5 1.652 1.652 0 0 1 -1.447 1.5z"/><path d="m25 23a4.722 4.722 0 0 1 3.427 1.268 1.956 1.956 0 0 1 .573 1.4v2.332a2 2 0 0 1 -2 2h-4a2 2 0 0 1 -1.965-1.649c.132-1.551.777-5.351 3.965-5.351z" fill="#f5f5fc"/><path d="m21.035 28.351c.132-1.551.777-5.351 3.965-5.351a4.722 4.722 0 0 1 3.427 1.268 1.956 1.956 0 0 1 .573 1.4v.237a4.892 4.892 0 0 0 -3-.905c-2.845 0-3.664 3.026-3.9 4.778a2 2 0 0 1 -1.065-1.427z" fill="#e1e1f0"/><ellipse cx="26" cy="27" fill="#9b7d7b" rx="2" ry="3"/><path d="m21 29.5a.5.5 0 0 0 .5-.5c0-.055.048-5.5 3.5-5.5a3.841 3.841 0 0 1 3.554 1.727.5.5 0 0 0 .893-.451 4.8 4.8 0 0 0 -4.447-2.276c-3.56 0-4.5 4.252-4.5 6.5a.5.5 0 0 0 .5.5z" fill="#784132"/><ellipse cx="26.5" cy="27" fill="#3d221a" rx="1.5" ry="2"/><path d="m26.5 28a1.652 1.652 0 0 0 1.447-1.5 2.623 2.623 0 0 1 .053.5c0 1.105-.672 2-1.5 2s-1.5-.895-1.5-2a2.623 2.623 0 0 1 .053-.5 1.652 1.652 0 0 0 1.447 1.5z"/></svg>