<svg height="512" viewBox="0 0 64 64" width="512" xmlns="http://www.w3.org/2000/svg"><g id="_06-Grinning" data-name="06-Grinning"><path d="m51 57.71v3.29a18.874 18.874 0 0 1 -8.47 2h-21.06a18.874 18.874 0 0 1 -8.47-2v-3.29a4.005 4.005 0 0 1 1.03-2.69 4.289 4.289 0 0 1 1.48-1.03l11.23-4.49a2.013 2.013 0 0 0 1.23-1.51l.03.01c0 1.66 1.6 3 4 3s4-1.34 4-3l.03-.01a2.013 2.013 0 0 0 1.23 1.51l11.23 4.49a4.289 4.289 0 0 1 1.48 1.03 4.005 4.005 0 0 1 1.03 2.69z" fill="#fdadc8"/><path d="m50 28v1c0 2.76-2.24 6-5 6h-1l-.03-.02a22.28 22.28 0 0 0 2.93-8.99l.1.01h1a2.006 2.006 0 0 1 2 2z" fill="#faa68e"/><path d="m50 29v26l-.03.02a4.289 4.289 0 0 0 -1.48-1.03l-11.23-4.49a2.013 2.013 0 0 1 -1.23-1.51 1.87 1.87 0 0 1 -.03-.34v-5.42a16.493 16.493 0 0 0 7.97-7.25l.03.02h1c2.76 0 5-3.24 5-6z" fill="#a65d4e"/><path d="m50 18v10a2.006 2.006 0 0 0 -2-2h-1l-.1-.01a18.942 18.942 0 0 0 .1-1.99c0-6.63-6-6-8-12 0 5.53-11.5 9-22 9v3a18.942 18.942 0 0 0 .1 1.99l-.1.01h-1a2.006 2.006 0 0 0 -2 2v-10c0-9.39 8.06-17 18-17a18.483 18.483 0 0 1 12.73 4.98 16.509 16.509 0 0 1 5.27 12.02z" fill="#a65d4e"/><path d="m36.03 47.99-.03.01c0 1.66-1.6 3-4 3s-4-1.34-4-3l-.03-.01a1.87 1.87 0 0 0 .03-.34v-5.42a10.775 10.775 0 0 0 8 0v5.42a1.87 1.87 0 0 0 .03.34z" fill="#ffcdbe"/><path d="m28 42.23v5.42a1.87 1.87 0 0 1 -.03.34 2.013 2.013 0 0 1 -1.23 1.51l-11.23 4.49a4.289 4.289 0 0 0 -1.48 1.03l-.03-.02v-26c0 2.76 2.24 6 5 6h1l.03-.02a16.493 16.493 0 0 0 7.97 7.25z" fill="#a65d4e"/><path d="m39 12c0 5.53-11.5 9-22 9v3a18.942 18.942 0 0 0 .1 1.99 22.28 22.28 0 0 0 2.93 8.99 16.493 16.493 0 0 0 7.97 7.25 10.775 10.775 0 0 0 8 0 16.493 16.493 0 0 0 7.97-7.25 22.28 22.28 0 0 0 2.93-8.99 18.942 18.942 0 0 0 .1-1.99c0-6.63-6-6-8-12z" fill="#ffcebf"/><path d="m20.03 34.98-.03.02h-1c-2.76 0-5-3.24-5-6v-1a2.006 2.006 0 0 1 2-2h1l.1-.01a22.28 22.28 0 0 0 2.93 8.99z" fill="#faa68e"/><path d="m39 12c0 5.53-11.5 9-22 9v3c10.5 0 22-3.47 22-9 1.866 5.6 7.207 5.43 7.917 10.762.054-.586.083-1.178.083-1.762 0-6.63-6-6-8-12z" fill="#faa68e"/><path d="m48 26h-1a2.006 2.006 0 0 1 2 2v1c0 2.76-2.24 6-5 6h1c2.76 0 5-3.24 5-6v-1a2.006 2.006 0 0 0 -2-2z" fill="#ffdecf"/><path d="m15 29v-1a2.006 2.006 0 0 1 2-2h-1a2.006 2.006 0 0 0 -2 2v1c0 2.76 2.24 6 5 6h1c-2.76 0-5-3.24-5-6z" fill="#ffdecf"/><path d="m31 49v-2a2 2 0 0 1 2-2h3v-2.77a10.775 10.775 0 0 1 -8 0v5.42a1.87 1.87 0 0 1 -.03.34l.03.01c0 1.66 1.6 3 4 3a5.931 5.931 0 0 0 .593-.042 2 2 0 0 1 -1.593-1.958z" fill="#faa68e"/><path d="m20.03 34.98-.03.02h-1a3.883 3.883 0 0 1 -2-.585v18.979l9.74-3.894a2.013 2.013 0 0 0 1.23-1.51 1.87 1.87 0 0 0 .03-.34v-5.42a16.493 16.493 0 0 1 -7.97-7.25z" fill="#784132"/><path d="m43.97 34.98.03.02h1a3.883 3.883 0 0 0 2-.585v18.979l-9.74-3.894a2.013 2.013 0 0 1 -1.23-1.51 1.87 1.87 0 0 1 -.03-.34v-5.42a16.493 16.493 0 0 0 7.97-7.25z" fill="#784132"/><path d="m28.521 51.95a5.643 5.643 0 0 0 3.479 1.05 5.643 5.643 0 0 0 3.479-1.05 3.825 3.825 0 0 0 1.464-2.627 2.006 2.006 0 0 1 -.913-1.333l-.03.01c0 1.66-1.6 3-4 3s-4-1.34-4-3l-.03-.01a2.006 2.006 0 0 1 -.913 1.333 3.825 3.825 0 0 0 1.464 2.627z" fill="#d88caa"/><path d="m48.545 59.864a4.59 4.59 0 0 1 -1.107.136h-23.138a4.3 4.3 0 0 1 -4.3-4.3v-3.5l-4.49 1.8a4.015 4.015 0 0 0 -2.51 3.71v3.29a18.874 18.874 0 0 0 8.47 2h21.06a18.874 18.874 0 0 0 8.47-2v-2.718a4.551 4.551 0 0 1 -2.455 1.582z" fill="#d88caa"/><path d="m28.407 8.805a21.423 21.423 0 0 0 3.393 2.195h.2c7 0 11.679-1.256 14.322-3.265a17.5 17.5 0 0 0 -1.592-1.755c-.115-.109-.244-.205-.363-.311-2.767 2.031-6.548 3.331-12.367 3.331a32.386 32.386 0 0 1 -3.593-.195z" fill="#c38778"/><path d="m28.407 8.805a32.386 32.386 0 0 0 3.593.195c5.819 0 9.6-1.3 12.367-3.331a18.485 18.485 0 0 0 -12.367-4.669 18.769 18.769 0 0 0 -7.8 1.7 11.191 11.191 0 0 0 4.207 6.105z" fill="#b46e5a"/><path d="m28.407 8.805a17.641 17.641 0 0 1 -8.774-3.136 17.337 17.337 0 0 0 -1.956 2.065c2.616 1.99 7.235 3.238 14.123 3.266a21.423 21.423 0 0 1 -3.393-2.195z" fill="#b46e5a"/><path d="m49.7 15c-.06-.316-.131-.629-.209-.938-.02-.08-.043-.159-.064-.238a16.3 16.3 0 0 0 -.527-1.624c-.028-.073-.056-.147-.085-.219a16.5 16.5 0 0 0 -1.325-2.6l-.007-.011a17.2 17.2 0 0 0 -1.16-1.63c-2.644 2.004-7.323 3.26-14.323 3.26-.07 0-.134 0-.2 0a32.274 32.274 0 0 0 6.871 2.589 4.038 4.038 0 0 0 .329-1.589 9.193 9.193 0 0 0 .881 1.9 45.761 45.761 0 0 0 9.819 1.1z" fill="#b46e5a"/><path d="m31.162 26.236-1.133 4.853a1.146 1.146 0 0 0 -.029.255 2.035 2.035 0 0 0 1.886 2.156h.228a2.035 2.035 0 0 0 1.886-2.156 1.146 1.146 0 0 0 -.029-.255l-1.133-4.853a.9.9 0 0 0 -.838-.736.9.9 0 0 0 -.838.736z" fill="#ffb4a3"/><g fill="#784132"><path d="m42 30a1 1 0 0 1 -1-1c0-1.383-.617-2-2-2a2 2 0 0 0 -2 2 1 1 0 0 1 -2 0 4 4 0 0 1 4-4 3.675 3.675 0 0 1 4 4 1 1 0 0 1 -1 1z"/><path d="m28 30a1 1 0 0 1 -1-1 2 2 0 0 0 -2-2c-1.383 0-2 .617-2 2a1 1 0 0 1 -2 0 3.675 3.675 0 0 1 4-4 4 4 0 0 1 4 4 1 1 0 0 1 -1 1z"/><path d="m40 24h-1c-2.757 0-5-1.794-5-4a1 1 0 0 1 2 0c0 1.084 1.374 2 3 2h1a1 1 0 0 1 0 2z"/><path d="m25 24h-1a1 1 0 0 1 0-2h1c1.626 0 3-.916 3-2a1 1 0 0 1 2 0c0 2.206-2.243 4-5 4z"/></g><path d="m32 38.5a6.013 6.013 0 0 1 -5.447-3.276.5.5 0 1 1 .894-.448 5.167 5.167 0 0 0 9.106 0 .5.5 0 1 1 .894.448 6.013 6.013 0 0 1 -5.447 3.276z" fill="#f25a6b"/><path d="m50 8.2c0 2.651-1.791 4.8-4 4.8s-4-2.149-4-4.8 2.667-7.2 4-7.2 4 4.549 4 7.2z" fill="#52def7"/><path d="m43.168 4.229a9.741 9.741 0 0 0 -1.168 3.971c0 2.651 1.791 4.8 4 4.8a3.85 3.85 0 0 0 3.276-2.057c-3.345-.256-5.516-1.543-6.108-6.714z" fill="#24b0ed"/><path d="m47.1 3s2.062 2.973 1.886 4.714-1.371 1.464-1.639.631a17.431 17.431 0 0 1 -.247-5.345z" fill="#bff5ff"/><path d="m42 8.2a9.3 9.3 0 0 1 1.008-3.638 11.625 11.625 0 0 0 -3.008 6.638c0 2.651 1.791 4.8 4 4.8a4.2 4.2 0 0 0 3.85-3.568 3.444 3.444 0 0 1 -1.85.568c-2.209 0-4-2.149-4-4.8z" fill="#784132"/></g></svg>