<svg height="512" viewBox="0 0 64 64" width="512" xmlns="http://www.w3.org/2000/svg"><g id="_07-Wink" data-name="07-Wink"><path d="m62 26-3.33 1.67-1.67 3.33-1.67-3.33-3.33-1.67 3.33-1.67 1.67-3.33 1.67 3.33z" fill="#ffe16b"/><path d="m28 48c0 1.66 1.6 3 4 3s4-1.34 4-3l.03-.01a2.013 2.013 0 0 0 1.23 1.51l11.23 4.49a4.015 4.015 0 0 1 2.51 3.72v3.29a18.874 18.874 0 0 1 -8.47 2h-21.06a18.874 18.874 0 0 1 -8.47-2v-3.29a4.015 4.015 0 0 1 2.51-3.72l11.23-4.49a2.013 2.013 0 0 0 1.23-1.51z" fill="#988fc4"/><path d="m14 27-1-2 2-6-3 2a11.785 11.785 0 0 1 5-10l-5 1s0-2 3-4a11.913 11.913 0 0 1 6-2l.17.1a8.339 8.339 0 0 0 -1.17 3.9 2.872 2.872 0 0 0 2.85 2.99c-3.56 1.98-5.85 5.53-5.85 11.01a18.942 18.942 0 0 0 .1 1.99l-.1.01h-1a2.012 2.012 0 0 0 -1.76 1.05z" fill="#f2bb88"/><path d="m30 1-3 4 .05.08c-1.25.83-2.05 1.8-2.05 2.92 0 2.83 2.51 3.16 3.97 3.1a16.51 16.51 0 0 0 -6.12 1.89 2.872 2.872 0 0 1 -2.85-2.99 8.339 8.339 0 0 1 1.17-3.9 9.791 9.791 0 0 1 8.83-5.1z" fill="#f2d1a5"/><path d="m29.99 11c-.34.03-.67.06-1 .1-.01 0-.01.01-.02 0-1.46.06-3.97-.27-3.97-3.1 0-1.12.8-2.09 2.05-2.92 4.32-2.88 13.95-4.08 13.95-4.08l-2 4c-8.33 0-9.03 4.17-9.03 5.56a2.794 2.794 0 0 0 .03.44z" fill="#f2bb88"/><path d="m49.09 15.3a24.39 24.39 0 0 1 -6.09.7c-.34 0-.67-.01-1-.02-8.3-.35-12-4.98-12-4.98a2.794 2.794 0 0 1 -.03-.44c0-1.39.7-5.56 9.03-5.56a7.019 7.019 0 0 1 4.96 2.07c2.37 2.37 7.37 5.93 10.04 5.93a11.118 11.118 0 0 1 -4.91 2.3z" fill="#f2d1a5"/><path d="m50.32 21.65a5.8 5.8 0 0 1 -3.32 1.35h-.03c-1.19-.03-2.55-1.88-2.97-3l-2-4v-.02c.33.01.66.02 1 .02a24.39 24.39 0 0 0 6.09-.7c.3.93 1.41 3.7 3.91 3.7a15.12 15.12 0 0 1 -1.88 2c-.25.22-.51.44-.8.65z" fill="#f2d1a5"/><path d="m36 47.65a1.87 1.87 0 0 0 .03.34l-.03.01c0 1.66-1.6 3-4 3s-4-1.34-4-3l-.03-.01a1.87 1.87 0 0 0 .03-.34v-5.42a10.775 10.775 0 0 0 8 0z" fill="#ffd7d1"/><path d="m17.1 25.99a22.28 22.28 0 0 0 2.93 8.99l-.03.02h-1c-2.76 0-5-3.24-5-6v-1a2 2 0 0 1 2-2h1z" fill="#ffa8ad"/><path d="m48 26a2.006 2.006 0 0 1 2 2v1c0 2.76-2.24 6-5 6h-1l-.03-.02a22.28 22.28 0 0 0 2.93-8.99l.1.01z" fill="#ffa8ad"/><path d="m46.97 23c-1.19-.03-2.55-1.88-2.97-3l-2-4v-.02c-8.3-.35-12-4.98-12-4.98h-.01a6.69 6.69 0 0 1 -1 .1c-.01 0-.01.01-.02 0a16.51 16.51 0 0 0 -6.12 1.89c-3.56 1.98-5.85 5.53-5.85 11.01a18.942 18.942 0 0 0 .1 1.99 22.28 22.28 0 0 0 2.93 8.99 16.493 16.493 0 0 0 7.97 7.25 10.775 10.775 0 0 0 8 0 16.493 16.493 0 0 0 7.97-7.25 22.28 22.28 0 0 0 2.93-8.99 18.942 18.942 0 0 0 .1-1.99c0-.34-.01-.67-.03-1z" fill="#ffe4e0"/><path d="m51 23-1 6v-1a2.006 2.006 0 0 0 -2-2h-1l-.1-.01a18.942 18.942 0 0 0 .1-1.99c0-.34-.01-.67-.03-1h.03a5.8 5.8 0 0 0 3.32-1.35z" fill="#f2bb88"/><path d="m47 24c0-.34-.01-.67-.03-1-1.19-.03-2.55-1.88-2.97-3l-2-4v-.02c-8.3-.35-12-4.98-12-4.98h-.01a6.69 6.69 0 0 1 -1 .1c-.01 0-.01.01-.02 0a16.51 16.51 0 0 0 -6.12 1.89c-3.56 1.98-5.85 5.53-5.85 11.01a18.942 18.942 0 0 0 .1 1.99v.027c.482-4.581 2.626-8.291 5.747-10.027a16.51 16.51 0 0 1 6.12-1.89c.01.01.01 0 .02 0 .33-.04.66-.07 1-.1h.013a15.4 15.4 0 0 0 12 5.98v.02l2 4c.4 1.06 1.636 2.756 2.777 2.961.047-.323.091-.647.123-.971a18.942 18.942 0 0 0 .1-1.99z" fill="#ffa8ad"/><path d="m48 26h-1a2.006 2.006 0 0 1 2 2v1c0 2.76-2.24 6-5 6h1c2.76 0 5-3.24 5-6v-1a2.006 2.006 0 0 0 -2-2z" fill="#ffe4e0"/><path d="m15 29v-1a2.006 2.006 0 0 1 2-2h-1a2.006 2.006 0 0 0 -2 2v1c0 2.76 2.24 6 5 6h1c-2.76 0-5-3.24-5-6z" fill="#ffe4e0"/><path d="m31 49v-2a2 2 0 0 1 2-2h3v-2.77a10.775 10.775 0 0 1 -8 0v5.42a1.87 1.87 0 0 1 -.03.34l.03.01c0 1.66 1.6 3 4 3a5.931 5.931 0 0 0 .593-.042 2 2 0 0 1 -1.593-1.958z" fill="#ffa8ad"/><path d="m28.521 51.95a5.643 5.643 0 0 0 3.479 1.05 5.643 5.643 0 0 0 3.479-1.05 3.825 3.825 0 0 0 1.464-2.627 2.006 2.006 0 0 1 -.913-1.333l-.03.01c0 1.66-1.6 3-4 3s-4-1.34-4-3l-.03-.01a2.006 2.006 0 0 1 -.913 1.333 3.825 3.825 0 0 0 1.464 2.627z" fill="#6b5b85"/><path d="m48.545 59.864a4.59 4.59 0 0 1 -1.107.136h-23.138a4.3 4.3 0 0 1 -4.3-4.3v-3.5l-4.49 1.8a4.015 4.015 0 0 0 -2.51 3.71v3.29a18.874 18.874 0 0 0 8.47 2h21.06a18.874 18.874 0 0 0 8.47-2v-2.718a4.551 4.551 0 0 1 -2.455 1.582z" fill="#6b5b85"/><path d="m47.377 18.2a2.967 2.967 0 0 0 2.3-1.534 8.1 8.1 0 0 1 -.587-1.366 24.39 24.39 0 0 1 -6.09.7c-.34 0-.67-.01-1-.02v.02l2 4c.42 1.12 1.78 2.97 2.97 3h.03a4.2 4.2 0 0 0 1.522-.316 7.752 7.752 0 0 1 -2-3.122 1 1 0 0 1 .855-1.362z" fill="#f2bb88"/><path d="m45.568 8.522c-2.783 2.112-6.609 3.478-12.568 3.478-.72 0-1.4-.027-2.059-.066a14.938 14.938 0 0 0 3.084 2.051c6.936-.127 11.461-1.542 13.857-3.715-.817-.563-1.607-1.161-2.314-1.748z" fill="#ffe4c2"/><path d="m22.85 12.99a2.872 2.872 0 0 1 -2.85-2.99 8.339 8.339 0 0 1 1.17-3.9l-.17-.1a10.484 10.484 0 0 0 -2.536.419c-1.897 5.712 1.536 6.581 1.536 6.581-3 0-5 6-5 6l-2 6 1 2 .24.05a2.012 2.012 0 0 1 1.76-1.05h1l.1-.01a18.942 18.942 0 0 1 -.1-1.99c0-5.48 2.29-9.03 5.85-11.01z" fill="#e3a76f"/><path d="m25 8c0-1.12.8-2.09 2.05-2.92l-.05-.08.75-1h-.156a3.594 3.594 0 0 0 -3.594 3.594v.406a2 2 0 0 1 -3.846.768 6.248 6.248 0 0 0 -.154 1.232 2.872 2.872 0 0 0 2.85 2.99 16.51 16.51 0 0 1 6.12-1.89c-1.46.06-3.97-.27-3.97-3.1z" fill="#f2bb88"/><path d="m25.62 6.354a2.675 2.675 0 0 0 -.62 1.646c0 2.83 2.51 3.16 3.97 3.1.01.01.01 0 .02 0 .33-.04.66-.07 1-.1h.01a2.794 2.794 0 0 1 -.03-.44 4.671 4.671 0 0 1 1.263-3.16 4.4 4.4 0 0 1 -2.233.6 4.138 4.138 0 0 1 -3.38-1.646z" fill="#e3a76f"/><path d="m27 35h10s-1 4-5 4-5-4-5-4z" fill="#ff808c"/><path d="m31.162 26.236-1.133 4.853a1.146 1.146 0 0 0 -.029.255 2.035 2.035 0 0 0 1.886 2.156h.228a2.035 2.035 0 0 0 1.886-2.156 1.146 1.146 0 0 0 -.029-.255l-1.133-4.853a.9.9 0 0 0 -.838-.736.9.9 0 0 0 -.838.736z" fill="#ffc6c2"/><ellipse cx="32" cy="37.5" fill="#f25a6b" rx="3.57" ry="1.5"/><path d="m29 36h6a1.994 1.994 0 0 0 1.723-1h-9.446a1.994 1.994 0 0 0 1.723 1z" fill="#f5f5fc"/><path d="m25 23a4.722 4.722 0 0 1 3.427 1.268 1.956 1.956 0 0 1 .573 1.4v2.332a2 2 0 0 1 -2 2h-4a2 2 0 0 1 -1.965-1.649c.132-1.551.777-5.351 3.965-5.351z" fill="#f5f5fc"/><path d="m21.035 28.351c.132-1.551.777-5.351 3.965-5.351a4.722 4.722 0 0 1 3.427 1.268 1.956 1.956 0 0 1 .573 1.4v.237a4.892 4.892 0 0 0 -3-.905c-2.845 0-3.664 3.026-3.9 4.778a2 2 0 0 1 -1.065-1.427z" fill="#e1e1f0"/><ellipse cx="26" cy="27" fill="#019af8" rx="2" ry="3"/><path d="m21 29.5a.5.5 0 0 0 .5-.5c0-.055.048-5.5 3.5-5.5a3.841 3.841 0 0 1 3.554 1.727.5.5 0 0 0 .893-.451 4.8 4.8 0 0 0 -4.447-2.276c-3.56 0-4.5 4.252-4.5 6.5a.5.5 0 0 0 .5.5z" fill="#c48958"/><ellipse cx="26.5" cy="27" fill="#2940a3" rx="1.5" ry="2"/><path d="m26.5 28a1.652 1.652 0 0 0 1.447-1.5 2.623 2.623 0 0 1 .053.5c0 1.105-.672 2-1.5 2s-1.5-.895-1.5-2a2.623 2.623 0 0 1 .053-.5 1.652 1.652 0 0 0 1.447 1.5z" fill="#0e1e66"/><path d="m30 23a1 1 0 0 1 -.6-.2c-.038-.029-3.792-2.8-7.4-2.8a1 1 0 0 1 0-2c4.284 0 8.426 3.069 8.6 3.2a1 1 0 0 1 -.6 1.8z" fill="#b27a49"/><path d="m34 25a1 1 0 0 1 -.6-1.8c.174-.131 4.316-3.2 8.6-3.2a1 1 0 0 1 0 2c-3.609 0-7.363 2.772-7.4 2.8a1 1 0 0 1 -.6.2z" fill="#b27a49"/><path d="m41 29.5a.5.5 0 0 1 -.5-.5 2.216 2.216 0 0 0 -2.5-2.5 2.5 2.5 0 0 0 -2.5 2.5.5.5 0 0 1 -1 0 3.5 3.5 0 0 1 3.5-3.5 3.186 3.186 0 0 1 3.5 3.5.5.5 0 0 1 -.5.5z" fill="#c48958"/></g></svg>