<svg height="512" viewBox="0 0 64 64" width="512" xmlns="http://www.w3.org/2000/svg"><g id="_08-Pouting" data-name="08-Pouting"><path d="m37.26 49.5 11.23 4.49a4.015 4.015 0 0 1 2.51 3.72v3.29a18.874 18.874 0 0 1 -8.47 2h-21.06a18.874 18.874 0 0 1 -8.47-2v-3.29a4.015 4.015 0 0 1 2.51-3.72l11.23-4.49a2.013 2.013 0 0 0 1.23-1.51l.03.01c0 1.66 1.6 3 4 3s4-1.34 4-3l.03-.01a2.013 2.013 0 0 0 1.23 1.51z" fill="#ffc68f"/><path d="m36 47.65a1.87 1.87 0 0 0 .03.34l-.03.01c0 1.66-1.6 3-4 3s-4-1.34-4-3l-.03-.01a1.87 1.87 0 0 0 .03-.34v-5.41a10.906 10.906 0 0 0 8 0z" fill="#fecbb7"/><path d="m48 26a2.006 2.006 0 0 1 2 2v1c0 2.76-2.24 6-5 6h-1l-.03-.02a22.236 22.236 0 0 0 2.93-8.98v-.01a.34.34 0 0 0 .1.01z" fill="#f6a792"/><path d="m39 12-2 1-4-3s-13 3-13 16v3.55c0 1.45-.23 5.03 1.38 6.99a5.985 5.985 0 0 0 4.62 2.46 6.738 6.738 0 0 1 -1.32 1.36 13.548 13.548 0 0 0 3.32 1.88 10.906 10.906 0 0 0 8 0 14.387 14.387 0 0 0 4.94-3.3 19.588 19.588 0 0 0 3.03-3.96 22.236 22.236 0 0 0 2.93-8.98v-.01c-3.01-.3-7.9-13.99-7.9-13.99z" fill="#fecbb7"/><path d="m36 3a4.38 4.38 0 0 1 3-1c4.34 0 8.31 4.4 8.91 11 .88 9.67 7.56 10.88 8.09 20v2c-.52 8.72-9 5-9 5s0 1-3 1-3-2-3-2l-.06-.06a19.588 19.588 0 0 0 3.03-3.96l.03.02h1c2.76 0 5-3.24 5-6v-1a2.006 2.006 0 0 0 -2-2h-1a.34.34 0 0 1 -.1-.01c-3.01-.3-7.9-13.99-7.9-13.99l-2 1-4-3s-13 3-13 16v3.55c0 1.45-.23 5.03 1.38 6.99a5.985 5.985 0 0 0 4.62 2.46 6.738 6.738 0 0 1 -1.32 1.36 7.454 7.454 0 0 1 -4.68 1.64 4.7 4.7 0 0 1 -3.75-1.72c-2.16.71-8.25 1.99-8.25-6.28 0-10 7.09-10.99 8-21 1-11 10-12 16-12a4.808 4.808 0 0 1 4 2z" fill="#403937"/><path d="m36.414 10.414a9.935 9.935 0 0 0 -13.746-.414c-8.068 7.532-8.668 23-8.668 23s0 4.67 2.25 7.28a4.7 4.7 0 0 0 3.75 1.72 7.454 7.454 0 0 0 4.68-1.64 6.738 6.738 0 0 0 1.32-1.36 5.985 5.985 0 0 1 -4.62-2.46c-1.61-1.96-1.38-5.54-1.38-6.99v-3.55c0-13 13-16 13-16l4 3v-1.172a2 2 0 0 0 -.586-1.414z" fill="#615855"/><path d="m48 26h-1a2.006 2.006 0 0 1 2 2v1c0 2.76-2.24 6-5 6h1c2.76 0 5-3.24 5-6v-1a2.006 2.006 0 0 0 -2-2z" fill="#fecbb7"/><g fill="#f6a792"><path d="m31 49v-2a2 2 0 0 1 2-2h3v-2.77a10.775 10.775 0 0 1 -8 0v5.42a1.87 1.87 0 0 1 -.03.34l.03.01c0 1.66 1.6 3 4 3a5.931 5.931 0 0 0 .593-.042 2 2 0 0 1 -1.593-1.958z"/><path d="m26 39a6.738 6.738 0 0 1 -1.32 1.36 14.115 14.115 0 0 0 2.161 1.354 10.212 10.212 0 0 0 1.159-2.714z"/><path d="m46.9 25.99c-3.01-.3-7.9-13.99-7.9-13.99l-2 1-4-3s-11.4 2.633-12.849 13.648c3.177-8.309 11.849-11.648 11.849-11.648l4 6 2-1s4.89 12.69 7.9 12.99a.34.34 0 0 0 .1.01h.111a21.681 21.681 0 0 0 .789-4z"/></g><path d="m36.414 10.414a1.973 1.973 0 0 1 .284.369c4.58-.451 7.8-1.585 9.792-3.171a12.1 12.1 0 0 0 -1.505-2.42c-2.423 1.979-5.666 3.366-10.515 3.714a10.156 10.156 0 0 1 1.944 1.508z" fill="#59504e"/><path d="m34.47 8.906c4.849-.348 8.092-1.735 10.515-3.714a7.784 7.784 0 0 0 -5.985-3.192 4.38 4.38 0 0 0 -3 1 4.808 4.808 0 0 0 -4-2 25.172 25.172 0 0 0 -7.919 1.053 9.9 9.9 0 0 0 3.051 5.619 10.1 10.1 0 0 1 7.338 1.234z" fill="#4d4543"/><path d="m47.91 13a15.972 15.972 0 0 0 -1.42-5.388c-1.99 1.588-5.212 2.72-9.79 3.171a1.99 1.99 0 0 1 .3 1.045v1.172l2-1s.263.734.7 1.858a45.026 45.026 0 0 0 8.495 1.1 19.514 19.514 0 0 1 -.285-1.958z" fill="#4d4543"/><path d="m49 38.591a2.394 2.394 0 0 1 1.245-2.107 6.877 6.877 0 0 0 2.755-5.484 4.76 4.76 0 0 0 -1.408-3.488 5.273 5.273 0 0 0 -3.11-1.446 2 2 0 0 1 1.518 1.934v1c0 2.76-2.24 6-5 6h-1l-.03-.02a19.588 19.588 0 0 1 -3.03 3.96l.06.06s0 2 3 2 3-1 3-1a10.839 10.839 0 0 0 3.411.778 2.4 2.4 0 0 1 -1.411-2.187z" fill="#332d2c"/><path d="m21.38 36.54a4.415 4.415 0 0 1 -.41-.632c-.085-.157-.166-.316-.238-.481-.876-2-.732-4.67-.732-5.877v-3.55c0-13 13-16 13-16s-2-1-7 2c-5.491 3.294-8 8-8 19a15.019 15.019 0 0 0 .467 3.987 2.689 2.689 0 0 1 -3.157 3.413c-.076-.018-.153-.038-.231-.058a7.49 7.49 0 0 0 1.171 1.938 4.7 4.7 0 0 0 3.75 1.72 7.454 7.454 0 0 0 4.68-1.64 6.738 6.738 0 0 0 1.32-1.36 5.985 5.985 0 0 1 -4.62-2.46z" fill="#4d4543"/><path d="m11 36a2.991 2.991 0 0 1 -2.969-2.691c-.008.233-.031.447-.031.691 0 8.27 6.09 6.99 8.25 6.28-2.25-2.61-2.25-7.28-2.25-7.28a3 3 0 0 1 -3 3z" fill="#332d2c"/><path d="m28.521 51.95a5.643 5.643 0 0 0 3.479 1.05 5.643 5.643 0 0 0 3.479-1.05 3.825 3.825 0 0 0 1.464-2.627 2.006 2.006 0 0 1 -.913-1.333l-.03.01c0 1.66-1.6 3-4 3s-4-1.34-4-3l-.03-.01a2.006 2.006 0 0 1 -.913 1.333 3.825 3.825 0 0 0 1.464 2.627z" fill="#eea577"/><path d="m48.545 59.864a4.59 4.59 0 0 1 -1.107.136h-23.138a4.3 4.3 0 0 1 -4.3-4.3v-3.5l-4.49 1.8a4.015 4.015 0 0 0 -2.51 3.71v3.29a18.874 18.874 0 0 0 8.47 2h21.06a18.874 18.874 0 0 0 8.47-2v-2.718a4.551 4.551 0 0 1 -2.455 1.582z" fill="#eea577"/><path d="m35.861 39.5a.5.5 0 0 1 -.486-.382 3.182 3.182 0 0 0 -3.375-2.618 3.182 3.182 0 0 0 -3.375 2.617.5.5 0 0 1 -.972-.235 4.155 4.155 0 0 1 4.347-3.382 4.156 4.156 0 0 1 4.347 3.383.5.5 0 0 1 -.368.6.481.481 0 0 1 -.118.017z" fill="#403937"/><path d="m29.95 21.9s.757-1.028-3.614-3.007c-2.3-1.041-3.462-1-4.047-.723-.489.23-.334.8.289 1.078l3.5 1.583s3.493 1.58 3.872 1.069z" fill="#403937"/><path d="m34.05 21.9s-.757-1.028 3.614-3.007c2.3-1.041 3.462-1 4.047-.723.489.23.334.8-.289 1.078l-3.5 1.583s-3.493 1.58-3.872 1.069z" fill="#403937"/><path d="m25 23a4.722 4.722 0 0 1 3.427 1.268 1.956 1.956 0 0 1 .573 1.4v2.332a2 2 0 0 1 -2 2h-4a2 2 0 0 1 -1.965-1.649c.132-1.551.777-5.351 3.965-5.351z" fill="#f5f5fc"/><path d="m21.035 28.351c.132-1.551.777-5.351 3.965-5.351a4.722 4.722 0 0 1 3.427 1.268 1.956 1.956 0 0 1 .573 1.4v.237a4.892 4.892 0 0 0 -3-.905c-2.845 0-3.664 3.026-3.9 4.778a2 2 0 0 1 -1.065-1.427z" fill="#e1e1f0"/><ellipse cx="26" cy="27" fill="#615855" rx="2" ry="3"/><ellipse cx="26.5" cy="27" fill="#4d4543" rx="1.5" ry="2"/><path d="m26.5 28a1.652 1.652 0 0 0 1.447-1.5 2.623 2.623 0 0 1 .053.5c0 1.105-.672 2-1.5 2s-1.5-.895-1.5-2a2.623 2.623 0 0 1 .053-.5 1.652 1.652 0 0 0 1.447 1.5z" fill="#332d2c"/><path d="m29.555 24.168-5.282-2.553a1.99 1.99 0 0 0 -2.273.385l6.445 3.832a1 1 0 1 0 1.11-1.664z" fill="#403937"/><path d="m20.5 29a.5.5 0 0 0 .5.5.5.5 0 0 0 .5-.5c0-.052.053-5.04 3.092-5.459l-1.175-.7c-2.262 1.047-2.917 4.291-2.917 6.159z" fill="#403937"/><path d="m39.5 23a4.722 4.722 0 0 0 -3.427 1.268 1.956 1.956 0 0 0 -.573 1.4v2.332a2 2 0 0 0 2 2h4a2 2 0 0 0 1.965-1.649c-.132-1.551-.777-5.351-3.965-5.351z" fill="#f5f5fc"/><path d="m43.465 28.351c-.132-1.551-.777-5.351-3.965-5.351a4.722 4.722 0 0 0 -3.427 1.268 1.956 1.956 0 0 0 -.573 1.4v.237a4.892 4.892 0 0 1 3-.909c2.845 0 3.664 3.026 3.9 4.778a2 2 0 0 0 1.065-1.423z" fill="#e1e1f0"/><ellipse cx="38.5" cy="27" fill="#615855" rx="2" ry="3"/><ellipse cx="38" cy="27" fill="#4d4543" rx="1.5" ry="2"/><path d="m38 28a1.652 1.652 0 0 1 -1.447-1.5 2.623 2.623 0 0 0 -.053.5c0 1.105.672 2 1.5 2s1.5-.895 1.5-2a2.623 2.623 0 0 0 -.053-.5 1.652 1.652 0 0 1 -1.447 1.5z" fill="#332d2c"/><path d="m34.945 24.168 5.282-2.553a1.99 1.99 0 0 1 2.273.385l-6.445 3.832a1 1 0 0 1 -1.11-1.664z" fill="#403937"/><path d="m44 29a.5.5 0 0 1 -.5.5.5.5 0 0 1 -.5-.5c0-.052-.053-5.04-3.092-5.459l1.175-.7c2.262 1.047 2.917 4.291 2.917 6.159z" fill="#403937"/></g></svg>