<svg height="512" viewBox="0 0 64 64" width="512" xmlns="http://www.w3.org/2000/svg"><g id="_10-Angry" data-name="10-Angry"><path d="m37.26 49.5 11.23 4.49a4.015 4.015 0 0 1 2.51 3.72v3.29a18.874 18.874 0 0 1 -8.47 2h-21.06a18.874 18.874 0 0 1 -8.47-2v-3.29a4.015 4.015 0 0 1 2.51-3.72l11.23-4.49a2.013 2.013 0 0 0 1.23-1.51l.03.01c0 1.66 1.6 3 4 3s4-1.34 4-3l.03-.01a2.013 2.013 0 0 0 1.23 1.51z" fill="#ffc68f"/><path d="m36 47.65a1.87 1.87 0 0 0 .03.34l-.03.01c0 1.66-1.6 3-4 3s-4-1.34-4-3l-.03-.01a1.87 1.87 0 0 0 .03-.34v-5.41a10.906 10.906 0 0 0 8 0z" fill="#fecbb7"/><path d="m48 26a2.006 2.006 0 0 1 2 2v1c0 2.76-2.24 6-5 6h-1l-.03-.02a22.236 22.236 0 0 0 2.93-8.98v-.01a.34.34 0 0 0 .1.01z" fill="#f6a792"/><path d="m39 12-2 1-4-3s-13 3-13 16v3.55c0 1.45-.23 5.03 1.38 6.99a5.985 5.985 0 0 0 4.62 2.46 6.738 6.738 0 0 1 -1.32 1.36 13.548 13.548 0 0 0 3.32 1.88 10.906 10.906 0 0 0 8 0 14.387 14.387 0 0 0 4.94-3.3 19.588 19.588 0 0 0 3.03-3.96 22.236 22.236 0 0 0 2.93-8.98v-.01c-3.01-.3-7.9-13.99-7.9-13.99z" fill="#fecbb7"/><path d="m36 3a4.38 4.38 0 0 1 3-1c4.34 0 8.31 4.4 8.91 11 .88 9.67 7.56 10.88 8.09 20v2c-.52 8.72-9 5-9 5s0 1-3 1-3-2-3-2l-.06-.06a19.588 19.588 0 0 0 3.03-3.96l.03.02h1c2.76 0 5-3.24 5-6v-1a2.006 2.006 0 0 0 -2-2h-1a.34.34 0 0 1 -.1-.01c-3.01-.3-7.9-13.99-7.9-13.99l-2 1-4-3s-13 3-13 16v3.55c0 1.45-.23 5.03 1.38 6.99a5.985 5.985 0 0 0 4.62 2.46 6.738 6.738 0 0 1 -1.32 1.36 7.454 7.454 0 0 1 -4.68 1.64 4.7 4.7 0 0 1 -3.75-1.72c-2.16.71-8.25 1.99-8.25-6.28 0-10 7.09-10.99 8-21 1-11 10-12 16-12a4.808 4.808 0 0 1 4 2z" fill="#403937"/><path d="m36.414 10.414a9.935 9.935 0 0 0 -13.746-.414c-8.068 7.532-8.668 23-8.668 23s0 4.67 2.25 7.28a4.7 4.7 0 0 0 3.75 1.72 7.454 7.454 0 0 0 4.68-1.64 6.738 6.738 0 0 0 1.32-1.36 5.985 5.985 0 0 1 -4.62-2.46c-1.61-1.96-1.38-5.54-1.38-6.99v-3.55c0-13 13-16 13-16l4 3v-1.172a2 2 0 0 0 -.586-1.414z" fill="#615855"/><path d="m48 26h-1a2.006 2.006 0 0 1 2 2v1c0 2.76-2.24 6-5 6h1c2.76 0 5-3.24 5-6v-1a2.006 2.006 0 0 0 -2-2z" fill="#fecbb7"/><path d="m31 49v-2a2 2 0 0 1 2-2h3v-2.77a10.775 10.775 0 0 1 -8 0v5.42a1.87 1.87 0 0 1 -.03.34l.03.01c0 1.66 1.6 3 4 3a5.931 5.931 0 0 0 .593-.042 2 2 0 0 1 -1.593-1.958z" fill="#f6a792"/><path d="m26 39a6.738 6.738 0 0 1 -1.32 1.36 14.115 14.115 0 0 0 2.161 1.354 10.212 10.212 0 0 0 1.159-2.714z" fill="#f6a792"/><path d="m46.9 25.99c-3.01-.3-7.9-13.99-7.9-13.99l-2 1-4-3s-11.4 2.633-12.849 13.648c3.177-8.309 11.849-11.648 11.849-11.648l4 6 2-1s4.89 12.69 7.9 12.99a.34.34 0 0 0 .1.01h.111a21.681 21.681 0 0 0 .789-4z" fill="#f6a792"/><path d="m36.414 10.414a1.973 1.973 0 0 1 .284.369c4.58-.451 7.8-1.585 9.792-3.171a12.1 12.1 0 0 0 -1.505-2.42c-2.423 1.979-5.666 3.366-10.515 3.714a10.156 10.156 0 0 1 1.944 1.508z" fill="#59504e"/><path d="m34.47 8.906c4.849-.348 8.092-1.735 10.515-3.714a7.784 7.784 0 0 0 -5.985-3.192 4.38 4.38 0 0 0 -3 1 4.808 4.808 0 0 0 -4-2 25.172 25.172 0 0 0 -7.919 1.053 9.9 9.9 0 0 0 3.051 5.619 10.1 10.1 0 0 1 7.338 1.234z" fill="#4d4543"/><path d="m47.91 13a15.972 15.972 0 0 0 -1.42-5.388c-1.99 1.588-5.212 2.72-9.79 3.171a1.99 1.99 0 0 1 .3 1.045v1.172l2-1s.263.734.7 1.858a45.026 45.026 0 0 0 8.495 1.1 19.514 19.514 0 0 1 -.285-1.958z" fill="#4d4543"/><path d="m49 38.591a2.394 2.394 0 0 1 1.245-2.107 6.877 6.877 0 0 0 2.755-5.484 4.76 4.76 0 0 0 -1.408-3.488 5.273 5.273 0 0 0 -3.11-1.446 2 2 0 0 1 1.518 1.934v1c0 2.76-2.24 6-5 6h-1l-.03-.02a19.588 19.588 0 0 1 -3.03 3.96l.06.06s0 2 3 2 3-1 3-1a10.839 10.839 0 0 0 3.411.778 2.4 2.4 0 0 1 -1.411-2.187z" fill="#332d2c"/><path d="m21.38 36.54a4.415 4.415 0 0 1 -.41-.632c-.085-.157-.166-.316-.238-.481-.876-2-.732-4.67-.732-5.877v-3.55c0-13 13-16 13-16s-2-1-7 2c-5.491 3.294-8 8-8 19a15.019 15.019 0 0 0 .467 3.987 2.689 2.689 0 0 1 -3.157 3.413c-.076-.018-.153-.038-.231-.058a7.49 7.49 0 0 0 1.171 1.938 4.7 4.7 0 0 0 3.75 1.72 7.454 7.454 0 0 0 4.68-1.64 6.738 6.738 0 0 0 1.32-1.36 5.985 5.985 0 0 1 -4.62-2.46z" fill="#4d4543"/><path d="m11 36a2.991 2.991 0 0 1 -2.969-2.691c-.008.233-.031.447-.031.691 0 8.27 6.09 6.99 8.25 6.28-2.25-2.61-2.25-7.28-2.25-7.28a3 3 0 0 1 -3 3z" fill="#332d2c"/><path d="m28.521 51.95a5.643 5.643 0 0 0 3.479 1.05 5.643 5.643 0 0 0 3.479-1.05 3.825 3.825 0 0 0 1.464-2.627 2.006 2.006 0 0 1 -.913-1.333l-.03.01c0 1.66-1.6 3-4 3s-4-1.34-4-3l-.03-.01a2.006 2.006 0 0 1 -.913 1.333 3.825 3.825 0 0 0 1.464 2.627z" fill="#eea577"/><path d="m48.545 59.864a4.59 4.59 0 0 1 -1.107.136h-23.138a4.3 4.3 0 0 1 -4.3-4.3v-3.5l-4.49 1.8a4.015 4.015 0 0 0 -2.51 3.71v3.29a18.874 18.874 0 0 0 8.47 2h21.06a18.874 18.874 0 0 0 8.47-2v-2.718a4.551 4.551 0 0 1 -2.455 1.582z" fill="#eea577"/><path d="m43 25-1 4h-6l-1-2s2-2 8-2" fill="#fff"/><path d="m22 25 1 4h6l1-2s-2-2-8-2" fill="#fff"/><path d="m35 24.5a.5.5 0 0 1 -.5-.5v-3a.5.5 0 0 1 1 0v2a19.888 19.888 0 0 1 7.418-2.5.5.5 0 1 1 .164.986c-5.722.954-7.711 2.843-7.73 2.862a.5.5 0 0 1 -.352.152z" fill="#403937"/><path d="m30 24.5a.5.5 0 0 1 -.256-.071c-.05-.029-4.932-2.929-8.744-2.929a.5.5 0 0 1 0-1c4.092 0 9.048 2.946 9.257 3.071a.5.5 0 0 1 -.257.929z" fill="#403937"/><path d="m32 24.5a.5.5 0 0 1 -.475-.342l-.333-1a.5.5 0 0 1 .95-.316l.333 1a.5.5 0 0 1 -.317.632.484.484 0 0 1 -.158.026z" fill="#c48575"/><g fill="#403937"><path d="m35 27.5a.5.5 0 0 1 -.355-.852c.089-.089 2.218-2.148 8.355-2.148a.5.5 0 0 1 0 1c-5.663 0-7.63 1.838-7.649 1.856a.5.5 0 0 1 -.351.144z"/><path d="m42 29.5h-6a.5.5 0 0 1 0-1h6a.5.5 0 0 1 0 1z"/><path d="m30 27.5a.5.5 0 0 1 -.351-.144c-.029-.028-2-1.856-7.649-1.856a.5.5 0 0 1 0-1c6.137 0 8.266 2.059 8.354 2.146a.5.5 0 0 1 -.354.854z"/><path d="m29 29.5h-6a.5.5 0 0 1 0-1h6a.5.5 0 0 1 0 1z"/></g><path d="m29 38a1.048 1.048 0 0 1 1.091-1 5.793 5.793 0 0 0 3.273-1l1.018-.7a1.735 1.735 0 0 1 .982-.3 1.573 1.573 0 0 1 1.636 1.5 2.621 2.621 0 0 1 -2.727 2.5h-4.182a1.048 1.048 0 0 1 -1.091-1z" fill="#f25a6b"/><path d="m32 27.5a.5.5 0 0 1 -.5-.5v-1a.5.5 0 0 1 1 0v1a.5.5 0 0 1 -.5.5z" fill="#c48575"/><path d="m33.5 25a.5.5 0 0 1 -.5-.5v-2a.5.5 0 0 1 1 0v2a.5.5 0 0 1 -.5.5z" fill="#c48575"/><circle cx="38.5" cy="27.5" fill="#332d2c" r="1"/><circle cx="26.5" cy="27.5" fill="#332d2c" r="1"/></g></svg>